<svg xmlns="http://www.w3.org/2000/svg" xmlns:xlink="http://www.w3.org/1999/xlink" width="320" zoomAndPan="magnify" viewBox="0 0 240 239.999995" height="320" preserveAspectRatio="xMidYMid meet" version="1.0"><defs><clipPath id="88a7d9edde"><path d="M 33.027344 145 L 203 145 L 203 234 L 33.027344 234 Z M 33.027344 145 " clip-rule="nonzero"/></clipPath><clipPath id="f072763bec"><path d="M 98 145.21875 L 141 145.21875 L 141 162 L 98 162 Z M 98 145.21875 " clip-rule="nonzero"/></clipPath><clipPath id="aab24eb330"><path d="M 202.433594 233.972656 L 33.074219 233.972656 L 46.160156 189.160156 C 49.90625 176.429688 64.855469 167.398438 82.160156 167.398438 L 97.449219 167.398438 C 100.96875 167.398438 103.800781 165.144531 103.800781 162.359375 L 103.800781 145.554688 L 137.039062 145.554688 L 137.039062 163.042969 C 137.039062 165.4375 139.480469 167.371094 142.480469 167.371094 L 153.460938 167.371094 C 170.699219 167.371094 185.71875 176.375 189.351562 189.035156 Z M 202.433594 233.972656 " clip-rule="nonzero"/></clipPath><clipPath id="1199840b5a"><path d="M 33.027344 165 L 207 165 L 207 234 L 33.027344 234 Z M 33.027344 165 " clip-rule="nonzero"/></clipPath><clipPath id="701b1055b7"><path d="M 196.023438 16 L 207 16 L 207 26 L 196.023438 26 Z M 196.023438 16 " clip-rule="nonzero"/></clipPath><clipPath id="4c04731083"><path d="M 225 26 L 233 26 L 233 36.769531 L 225 36.769531 Z M 225 26 " clip-rule="nonzero"/></clipPath><clipPath id="33326c0706"><path d="M 225 25 L 233 25 L 233 36.769531 L 225 36.769531 Z M 225 25 " clip-rule="nonzero"/></clipPath><clipPath id="b47855d718"><path d="M 198 3.019531 L 220 3.019531 L 220 23 L 198 23 Z M 198 3.019531 " clip-rule="nonzero"/></clipPath><clipPath id="dda3af854f"><path d="M 198 3.019531 L 220 3.019531 L 220 24 L 198 24 Z M 198 3.019531 " clip-rule="nonzero"/></clipPath><clipPath id="734b14284d"><path d="M 219 17 L 235.773438 17 L 235.773438 32 L 219 32 Z M 219 17 " clip-rule="nonzero"/></clipPath><clipPath id="8c752f5293"><path d="M 218 17 L 235.773438 17 L 235.773438 32 L 218 32 Z M 218 17 " clip-rule="nonzero"/></clipPath></defs><path fill="#775444" d="M 203.835938 151.898438 L 202.601562 151.644531 L 202.757812 151.644531 C 203.109375 151.757812 203.472656 151.839844 203.835938 151.898438 Z M 203.835938 151.898438 " fill-opacity="1" fill-rule="nonzero"/><path fill="#775444" d="M 202.773438 151.617188 L 202.617188 151.617188 C 199.8125 152.203125 195.605469 152.808594 190.667969 153.394531 C 188.984375 150.214844 187.863281 146.851562 187.300781 143.296875 C 186.628906 138.398438 185.96875 148.257812 186.460938 153.886719 C 183.347656 154.222656 180.011719 154.558594 176.644531 154.894531 C 161.21875 156.390625 144.710938 157.695312 144.710938 157.695312 C 141.90625 158.03125 139.101562 158.269531 136.296875 158.449219 C 94.222656 161.25 47.03125 149.195312 47.03125 149.195312 C 53.046875 147.960938 57.617188 139.125 57.898438 138.578125 C 49.75 149.25 38.9375 141.101562 38.445312 140.722656 C 39.21875 141.128906 60.886719 152.191406 55.542969 89.371094 C 50.074219 25.402344 97.011719 16.382812 97.011719 16.382812 C 97.011719 16.382812 165.328125 -0.0429688 188.328125 48.453125 C 198.578125 70.101562 195.859375 100.488281 194.46875 109.171875 C 193.023438 117.589844 192.953125 126.019531 194.257812 134.460938 C 195.226562 140.34375 196.867188 146.085938 199.644531 149.320312 C 200.472656 150.351562 201.5 151.113281 202.730469 151.601562 Z M 202.773438 151.617188 " fill-opacity="1" fill-rule="nonzero"/><g clip-path="url(#88a7d9edde)"><path fill="#edbeae" d="M 202.433594 233.972656 L 33.074219 233.972656 L 46.160156 189.160156 C 49.90625 176.429688 64.855469 167.398438 82.160156 167.398438 L 97.449219 167.398438 C 100.96875 167.398438 103.800781 165.144531 103.800781 162.359375 L 103.800781 145.554688 L 137.039062 145.554688 L 137.039062 163.042969 C 137.039062 165.4375 139.480469 167.371094 142.480469 167.371094 L 153.460938 167.371094 C 170.699219 167.371094 185.71875 176.375 189.351562 189.035156 Z M 202.433594 233.972656 " fill-opacity="1" fill-rule="nonzero"/></g><g clip-path="url(#f072763bec)"><g clip-path="url(#aab24eb330)"><path fill="#d86960" d="M 98.007812 148.226562 L 139.28125 145.582031 L 140.921875 161.644531 C 125.1875 160.832031 110.941406 156.742188 100.980469 150.1875 Z M 98.007812 148.226562 " fill-opacity="1" fill-rule="nonzero"/></g></g><path fill="#edbeae" d="M 182.578125 77.71875 C 179.769531 102.15625 163.726562 146.40625 121.992188 149.039062 C 74.796875 151.996094 62.75 112.632812 61.445312 77.71875 C 59.945312 38.160156 88.554688 17.644531 122.003906 17.644531 C 155.453125 17.644531 187.539062 35.414062 182.578125 77.71875 Z M 182.578125 77.71875 " fill-opacity="1" fill-rule="nonzero"/><path fill="#edbeae" d="M 192.871094 91.429688 C 192.730469 100.40625 177.105469 111.847656 172.085938 110.207031 C 163.867188 107.40625 167.878906 101.429688 169.28125 92.492188 C 170.683594 83.558594 171.246094 78.390625 179.660156 76.320312 C 184.539062 75.085938 193.050781 79.121094 192.871094 91.429688 Z M 192.871094 91.429688 " fill-opacity="1" fill-rule="nonzero"/><path fill="#d86960" d="M 98.625 37.066406 C 98.625 37.066406 105.050781 68.757812 144.625 77.679688 L 125.300781 65.128906 C 125.300781 65.128906 101.667969 43.859375 98.625 37.066406 Z M 98.625 37.066406 " fill-opacity="1" fill-rule="nonzero"/><path fill="#d86960" d="M 130.140625 59.234375 C 130.140625 59.234375 136.269531 79.398438 167.050781 80.800781 L 167.050781 77.664062 Z M 130.140625 59.234375 " fill-opacity="1" fill-rule="nonzero"/><path fill="#775444" d="M 184.539062 58.171875 L 183.136719 76.09375 C 183.136719 76.09375 177.203125 76.09375 174.0625 78.894531 C 171.257812 83.714844 168.859375 91.949219 167.5 97.03125 C 167.464844 97.199219 167.378906 97.332031 167.238281 97.429688 C 167.101562 97.53125 166.945312 97.570312 166.777344 97.550781 C 166.605469 97.53125 166.464844 97.457031 166.355469 97.328125 C 166.242188 97.199219 166.191406 97.046875 166.195312 96.875 C 166 91.625 165.675781 83.222656 165.464844 78.910156 C 164.890625 78.457031 164.238281 78.222656 163.503906 78.210938 C 138.539062 77.425781 130.65625 61.699219 130.195312 60.707031 C 136.183594 74.289062 146.757812 78.390625 148.691406 79.035156 C 112.371094 67.988281 98.121094 39.828125 98.121094 39.828125 C 98.121094 39.828125 88.585938 43.046875 77.085938 61.097656 C 65.585938 79.148438 64.742188 105.78125 64.742188 105.78125 C 53.128906 68.96875 62.023438 52.570312 70.351562 38.566406 C 78.683594 24.5625 98.90625 18.484375 98.90625 18.484375 L 121.429688 16.382812 L 152.691406 21.160156 L 174.582031 36.898438 Z M 184.539062 58.171875 " fill-opacity="1" fill-rule="nonzero"/><path fill="#413021" d="M 92.976562 82.308594 L 94.707031 82.117188 C 94.867188 82.097656 95.027344 82.113281 95.183594 82.15625 C 95.34375 82.203125 95.484375 82.277344 95.613281 82.378906 C 95.738281 82.480469 95.84375 82.605469 95.921875 82.746094 C 96 82.890625 96.050781 83.042969 96.066406 83.207031 L 97.003906 91.65625 C 97.019531 91.816406 97.007812 91.976562 96.960938 92.132812 C 96.917969 92.289062 96.84375 92.433594 96.738281 92.558594 C 96.636719 92.6875 96.515625 92.789062 96.371094 92.871094 C 96.226562 92.949219 96.074219 92.996094 95.914062 93.015625 L 94.183594 93.207031 C 94.019531 93.222656 93.859375 93.210938 93.703125 93.164062 C 93.546875 93.117188 93.402344 93.042969 93.277344 92.941406 C 93.148438 92.839844 93.046875 92.71875 92.964844 92.574219 C 92.886719 92.429688 92.839844 92.277344 92.820312 92.117188 L 91.886719 83.667969 C 91.867188 83.503906 91.882812 83.34375 91.925781 83.1875 C 91.972656 83.03125 92.046875 82.890625 92.148438 82.761719 C 92.25 82.632812 92.375 82.53125 92.519531 82.453125 C 92.660156 82.375 92.8125 82.324219 92.976562 82.308594 Z M 92.976562 82.308594 " fill-opacity="1" fill-rule="nonzero"/><path fill="#413021" d="M 132.03125 82.300781 L 133.761719 82.109375 C 133.925781 82.09375 134.082031 82.105469 134.242188 82.152344 C 134.398438 82.195312 134.539062 82.269531 134.667969 82.371094 C 134.796875 82.476562 134.898438 82.597656 134.976562 82.742188 C 135.058594 82.882812 135.105469 83.035156 135.125 83.199219 L 136.0625 91.648438 C 136.078125 91.808594 136.066406 91.96875 136.019531 92.125 C 135.972656 92.285156 135.898438 92.425781 135.796875 92.554688 C 135.695312 92.679688 135.574219 92.785156 135.429688 92.863281 C 135.285156 92.941406 135.132812 92.992188 134.96875 93.007812 L 133.242188 93.199219 C 133.078125 93.21875 132.917969 93.203125 132.761719 93.160156 C 132.605469 93.113281 132.460938 93.039062 132.335938 92.9375 C 132.207031 92.835938 132.101562 92.710938 132.023438 92.570312 C 131.945312 92.425781 131.898438 92.273438 131.878906 92.109375 L 130.941406 83.660156 C 130.925781 83.5 130.9375 83.339844 130.984375 83.183594 C 131.027344 83.027344 131.101562 82.882812 131.207031 82.757812 C 131.308594 82.628906 131.429688 82.523438 131.574219 82.445312 C 131.71875 82.367188 131.871094 82.320312 132.03125 82.300781 Z M 132.03125 82.300781 " fill-opacity="1" fill-rule="nonzero"/><path fill="#d86960" d="M 114.710938 118.679688 C 110.347656 118.65625 106.230469 117.636719 102.355469 115.628906 C 102.203125 115.539062 102.105469 115.410156 102.066406 115.238281 C 102.023438 115.066406 102.050781 114.90625 102.144531 114.757812 L 102.988281 113.359375 C 103.078125 113.226562 103.199219 113.140625 103.355469 113.101562 C 103.511719 113.066406 103.660156 113.085938 103.800781 113.164062 C 106.480469 114.5625 119.046875 120.5 131.316406 108.5 C 131.4375 108.386719 131.578125 108.328125 131.746094 108.328125 C 131.910156 108.328125 132.054688 108.386719 132.171875 108.5 L 133.292969 109.605469 C 133.414062 109.730469 133.476562 109.875 133.476562 110.046875 C 133.476562 110.21875 133.414062 110.367188 133.292969 110.488281 C 126.84375 116.859375 120.222656 118.679688 114.710938 118.679688 Z M 114.710938 118.679688 " fill-opacity="1" fill-rule="nonzero"/><path fill="#d86960" d="M 111.488281 104.453125 L 108.988281 104.1875 L 111.796875 87.117188 L 113.226562 87.257812 Z M 111.488281 104.453125 " fill-opacity="1" fill-rule="nonzero"/><path fill="#413021" d="M 128.738281 75.957031 C 128.738281 75.957031 135.171875 75.453125 136.84375 75.957031 C 138.511719 76.460938 138.246094 72.890625 138.246094 72.890625 C 138.246094 72.890625 131.023438 73.785156 129.832031 74.441406 C 129.53125 74.585938 129.28125 74.789062 129.089844 75.058594 C 128.894531 75.328125 128.777344 75.625 128.738281 75.957031 Z M 128.738281 75.957031 " fill-opacity="1" fill-rule="nonzero"/><path fill="#413021" d="M 98.175781 74.945312 C 98.175781 74.945312 91.710938 75.15625 90.113281 75.84375 C 88.515625 76.53125 88.347656 72.957031 88.347656 72.957031 C 88.347656 72.957031 95.625 73.042969 96.859375 73.574219 C 98.09375 74.105469 98.175781 74.945312 98.175781 74.945312 Z M 98.175781 74.945312 " fill-opacity="1" fill-rule="nonzero"/><path fill="#413021" d="M 91.558594 83.894531 C 90.160156 83.613281 88.945312 82.984375 87.910156 82.003906 C 87.769531 81.875 87.691406 81.710938 87.683594 81.515625 C 87.675781 81.324219 87.738281 81.152344 87.871094 81.011719 C 88 80.867188 88.164062 80.792969 88.359375 80.785156 C 88.554688 80.777344 88.722656 80.835938 88.863281 80.96875 C 89.410156 81.488281 91.234375 82.832031 92.316406 82.4375 C 92.5 82.375 92.679688 82.386719 92.855469 82.46875 C 93.03125 82.546875 93.15625 82.679688 93.226562 82.859375 C 93.292969 83.039062 93.285156 83.21875 93.203125 83.394531 C 93.121094 83.570312 92.988281 83.691406 92.804688 83.753906 C 92.402344 83.902344 91.984375 83.949219 91.558594 83.894531 Z M 91.558594 83.894531 " fill-opacity="1" fill-rule="nonzero"/><path fill="#413021" d="M 90.070312 85.910156 C 89.277344 85.820312 88.511719 85.625 87.769531 85.324219 C 87.671875 85.296875 87.585938 85.253906 87.507812 85.191406 C 87.429688 85.128906 87.367188 85.050781 87.320312 84.960938 C 87.273438 84.871094 87.25 84.777344 87.246094 84.675781 C 87.242188 84.574219 87.257812 84.476562 87.296875 84.382812 C 87.332031 84.292969 87.390625 84.210938 87.460938 84.140625 C 87.535156 84.070312 87.617188 84.019531 87.714844 83.984375 C 87.808594 83.953125 87.90625 83.941406 88.007812 83.949219 C 88.109375 83.957031 88.203125 83.984375 88.289062 84.035156 C 88.992188 84.316406 91.179688 84.933594 92.046875 84.191406 C 92.1875 84.050781 92.351562 83.984375 92.546875 83.984375 C 92.742188 83.984375 92.90625 84.050781 93.042969 84.191406 C 93.179688 84.324219 93.246094 84.488281 93.246094 84.679688 C 93.246094 84.871094 93.179688 85.035156 93.042969 85.167969 C 92.625 85.496094 92.15625 85.726562 91.636719 85.855469 C 91.117188 85.984375 90.597656 86.003906 90.070312 85.910156 Z M 90.070312 85.910156 " fill-opacity="1" fill-rule="nonzero"/><path fill="#413021" d="M 135.636719 83.28125 C 136.921875 82.640625 137.929688 81.707031 138.664062 80.480469 C 138.757812 80.316406 138.78125 80.144531 138.738281 79.964844 C 138.691406 79.785156 138.59375 79.644531 138.4375 79.542969 C 138.277344 79.441406 138.109375 79.410156 137.925781 79.445312 C 137.742188 79.480469 137.597656 79.570312 137.488281 79.722656 C 137.082031 80.367188 135.679688 82.132812 134.527344 82.046875 C 134.335938 82.027344 134.164062 82.078125 134.011719 82.203125 C 133.859375 82.324219 133.777344 82.484375 133.757812 82.675781 C 133.742188 82.871094 133.796875 83.042969 133.921875 83.1875 C 134.046875 83.335938 134.207031 83.417969 134.402344 83.433594 C 134.824219 83.476562 135.238281 83.425781 135.636719 83.28125 Z M 135.636719 83.28125 " fill-opacity="1" fill-rule="nonzero"/><path fill="#413021" d="M 137.402344 84.902344 C 138.175781 84.65625 138.898438 84.308594 139.578125 83.867188 C 139.738281 83.761719 139.835938 83.613281 139.875 83.425781 C 139.914062 83.238281 139.878906 83.0625 139.773438 82.902344 C 139.667969 82.738281 139.523438 82.636719 139.332031 82.597656 C 139.140625 82.558594 138.964844 82.59375 138.804688 82.707031 C 138.175781 83.109375 136.167969 84.105469 135.160156 83.601562 C 134.988281 83.507812 134.808594 83.484375 134.621094 83.539062 C 134.433594 83.59375 134.292969 83.703125 134.199219 83.875 C 134.105469 84.042969 134.082031 84.222656 134.136719 84.410156 C 134.191406 84.597656 134.300781 84.738281 134.472656 84.832031 C 135.441406 85.273438 136.417969 85.296875 137.402344 84.902344 Z M 137.402344 84.902344 " fill-opacity="1" fill-rule="nonzero"/><path fill="#d86960" d="M 144.632812 103.085938 L 146.425781 96.824219 L 147.773438 97.210938 L 145.984375 103.46875 Z M 144.632812 103.085938 " fill-opacity="1" fill-rule="nonzero"/><path fill="#d86960" d="M 147.96875 103.074219 L 149.757812 96.8125 L 151.105469 97.199219 L 149.316406 103.460938 Z M 147.96875 103.074219 " fill-opacity="1" fill-rule="nonzero"/><path fill="#d86960" d="M 151.558594 103.085938 L 153.347656 96.824219 L 154.699219 97.207031 L 152.90625 103.46875 Z M 151.558594 103.085938 " fill-opacity="1" fill-rule="nonzero"/><path fill="#d86960" d="M 76.214844 103.09375 L 78.003906 96.832031 L 79.355469 97.214844 L 77.5625 103.476562 Z M 76.214844 103.09375 " fill-opacity="1" fill-rule="nonzero"/><path fill="#d86960" d="M 79.5625 103.078125 L 81.351562 96.816406 L 82.703125 97.203125 L 80.910156 103.464844 Z M 79.5625 103.078125 " fill-opacity="1" fill-rule="nonzero"/><path fill="#d86960" d="M 83.136719 103.078125 L 84.929688 96.816406 L 86.277344 97.203125 L 84.484375 103.460938 Z M 83.136719 103.078125 " fill-opacity="1" fill-rule="nonzero"/><path fill="#d86960" d="M 176.320312 85.335938 C 176.320312 85.335938 174.175781 100.40625 172.925781 102.675781 C 171.679688 104.941406 186.53125 101.203125 187.246094 92.464844 C 187.960938 83.726562 180.445312 78.894531 176.320312 85.335938 Z M 176.320312 85.335938 " fill-opacity="1" fill-rule="nonzero"/><path fill="#775444" d="M 202.773438 151.601562 C 201.542969 151.113281 200.511719 150.351562 199.6875 149.320312 Z M 202.773438 151.601562 " fill-opacity="1" fill-rule="nonzero"/><path fill="#775444" d="M 69.214844 99.132812 C 68.023438 63.996094 97.433594 39.449219 97.726562 39.210938 L 98.625 40.289062 C 98.332031 40.527344 69.457031 64.695312 70.578125 99.101562 Z M 69.214844 99.132812 " fill-opacity="1" fill-rule="nonzero"/><path fill="#775444" d="M 46.175781 142.488281 L 44.96875 141.757812 C 45.175781 141.453125 45.421875 141.175781 45.699219 140.933594 C 52.710938 133.929688 56.0625 114.324219 55.613281 82.355469 L 57.015625 82.355469 C 57.703125 131.046875 49.414062 139.238281 46.695312 141.941406 C 46.503906 142.105469 46.332031 142.289062 46.175781 142.488281 Z M 46.175781 142.488281 " fill-opacity="1" fill-rule="nonzero"/><path fill="#775444" d="M 97.828125 18.359375 C 97.683594 17.882812 97.496094 17.421875 97.273438 16.976562 C 97.050781 16.535156 96.792969 16.109375 96.496094 15.710938 C 96.199219 15.308594 95.871094 14.9375 95.511719 14.59375 C 95.15625 14.25 94.769531 13.9375 94.355469 13.65625 C 93.945312 13.378906 93.511719 13.136719 93.058594 12.929688 C 92.601562 12.726562 92.136719 12.5625 91.652344 12.433594 C 91.171875 12.308594 90.683594 12.226562 90.1875 12.183594 C 89.6875 12.140625 89.191406 12.140625 88.695312 12.183594 C 88.695312 12.183594 94.304688 16.160156 94.375 19.253906 C 94.445312 22.351562 97.828125 18.359375 97.828125 18.359375 Z M 97.828125 18.359375 " fill-opacity="1" fill-rule="nonzero"/><path fill="#775444" d="M 195.199219 99.3125 L 193.796875 98.90625 C 204.761719 61.671875 179.769531 38.945312 179.546875 38.691406 L 180.488281 37.640625 C 180.796875 37.90625 206.417969 61.195312 195.199219 99.3125 Z M 195.199219 99.3125 " fill-opacity="1" fill-rule="nonzero"/><path fill="#edbeae" d="M 72.445312 40.710938 C 72.851562 40.832031 73.210938 41.058594 73.519531 41.390625 C 73.828125 41.722656 74.0625 42.136719 74.230469 42.625 C 74.394531 43.117188 74.472656 43.652344 74.46875 44.226562 C 74.464844 44.800781 74.375 45.375 74.203125 45.949219 C 74.03125 46.523438 73.785156 47.050781 73.46875 47.53125 C 73.15625 48.011719 72.792969 48.414062 72.382812 48.730469 C 71.972656 49.050781 71.550781 49.261719 71.109375 49.367188 C 70.667969 49.472656 70.242188 49.464844 69.835938 49.34375 C 69.429688 49.222656 69.074219 48.996094 68.765625 48.664062 C 68.457031 48.332031 68.21875 47.917969 68.054688 47.425781 C 67.890625 46.9375 67.808594 46.402344 67.8125 45.828125 C 67.820312 45.25 67.90625 44.675781 68.082031 44.105469 C 68.253906 43.53125 68.496094 43.003906 68.8125 42.523438 C 69.128906 42.039062 69.488281 41.640625 69.898438 41.320312 C 70.308594 41.003906 70.734375 40.792969 71.175781 40.683594 C 71.617188 40.578125 72.039062 40.585938 72.445312 40.710938 Z M 72.445312 40.710938 " fill-opacity="1" fill-rule="nonzero"/><path fill="#edbeae" d="M 75.003906 43.304688 C 75.289062 43.390625 75.527344 43.578125 75.726562 43.867188 C 75.925781 44.160156 76.066406 44.527344 76.148438 44.976562 C 76.230469 45.429688 76.25 45.925781 76.203125 46.464844 C 76.15625 47.007812 76.050781 47.554688 75.882812 48.105469 C 75.71875 48.65625 75.503906 49.171875 75.242188 49.648438 C 74.980469 50.125 74.6875 50.527344 74.371094 50.855469 C 74.054688 51.183594 73.730469 51.414062 73.40625 51.546875 C 73.082031 51.679688 72.777344 51.703125 72.492188 51.617188 C 72.210938 51.53125 71.96875 51.34375 71.773438 51.054688 C 71.574219 50.765625 71.433594 50.394531 71.351562 49.945312 C 71.269531 49.496094 71.25 49 71.296875 48.457031 C 71.34375 47.917969 71.449219 47.371094 71.613281 46.820312 C 71.78125 46.269531 71.996094 45.753906 72.257812 45.277344 C 72.519531 44.800781 72.808594 44.398438 73.128906 44.070312 C 73.445312 43.738281 73.769531 43.507812 74.09375 43.375 C 74.417969 43.246094 74.722656 43.222656 75.003906 43.304688 Z M 75.003906 43.304688 " fill-opacity="1" fill-rule="nonzero"/><path fill="#edbeae" d="M 175.304688 46.984375 C 175.40625 47.3125 175.484375 47.644531 175.542969 47.980469 C 175.605469 48.316406 175.640625 48.648438 175.660156 48.976562 C 175.675781 49.304688 175.671875 49.621094 175.644531 49.929688 C 175.617188 50.234375 175.570312 50.527344 175.503906 50.800781 C 175.433594 51.078125 175.347656 51.332031 175.238281 51.5625 C 175.128906 51.796875 175.003906 52.003906 174.859375 52.183594 C 174.71875 52.367188 174.558594 52.515625 174.386719 52.640625 C 174.210938 52.761719 174.027344 52.851562 173.832031 52.914062 C 173.632812 52.972656 173.429688 53 173.21875 52.992188 C 173.003906 52.984375 172.789062 52.945312 172.570312 52.875 C 172.347656 52.804688 172.128906 52.699219 171.910156 52.566406 C 171.691406 52.433594 171.476562 52.269531 171.269531 52.078125 C 171.058594 51.886719 170.859375 51.667969 170.664062 51.429688 C 170.472656 51.1875 170.292969 50.925781 170.125 50.640625 C 169.960938 50.359375 169.808594 50.0625 169.671875 49.75 C 169.535156 49.4375 169.417969 49.117188 169.316406 48.789062 C 169.21875 48.457031 169.136719 48.125 169.078125 47.789062 C 169.019531 47.453125 168.980469 47.121094 168.964844 46.792969 C 168.945312 46.46875 168.953125 46.148438 168.976562 45.84375 C 169.003906 45.535156 169.050781 45.242188 169.121094 44.96875 C 169.1875 44.691406 169.277344 44.4375 169.386719 44.207031 C 169.492188 43.972656 169.617188 43.765625 169.761719 43.585938 C 169.90625 43.40625 170.0625 43.253906 170.238281 43.128906 C 170.410156 43.007812 170.59375 42.917969 170.792969 42.859375 C 170.988281 42.796875 171.191406 42.773438 171.40625 42.777344 C 171.617188 42.785156 171.832031 42.824219 172.054688 42.894531 C 172.273438 42.964844 172.492188 43.070312 172.710938 43.203125 C 172.929688 43.339844 173.144531 43.5 173.355469 43.691406 C 173.5625 43.882812 173.765625 44.101562 173.957031 44.34375 C 174.148438 44.582031 174.328125 44.84375 174.496094 45.128906 C 174.664062 45.410156 174.816406 45.707031 174.953125 46.019531 C 175.085938 46.332031 175.207031 46.652344 175.304688 46.984375 Z M 175.304688 46.984375 " fill-opacity="1" fill-rule="nonzero"/><path fill="#edbeae" d="M 170.085938 48.207031 C 170.253906 48.757812 170.359375 49.304688 170.40625 49.847656 C 170.449219 50.386719 170.433594 50.882812 170.351562 51.332031 C 170.269531 51.785156 170.128906 52.152344 169.929688 52.441406 C 169.730469 52.734375 169.492188 52.921875 169.207031 53.003906 C 168.925781 53.089844 168.621094 53.066406 168.296875 52.9375 C 167.96875 52.804688 167.648438 52.574219 167.332031 52.242188 C 167.011719 51.914062 166.722656 51.511719 166.460938 51.035156 C 166.199219 50.558594 165.984375 50.042969 165.816406 49.492188 C 165.652344 48.941406 165.546875 48.394531 165.5 47.855469 C 165.453125 47.3125 165.472656 46.816406 165.554688 46.367188 C 165.636719 45.914062 165.777344 45.546875 165.976562 45.257812 C 166.171875 44.964844 166.414062 44.777344 166.695312 44.695312 C 166.980469 44.609375 167.285156 44.632812 167.609375 44.765625 C 167.933594 44.894531 168.257812 45.125 168.574219 45.457031 C 168.890625 45.785156 169.183594 46.1875 169.445312 46.664062 C 169.707031 47.140625 169.921875 47.65625 170.085938 48.207031 Z M 170.085938 48.207031 " fill-opacity="1" fill-rule="nonzero"/><path fill="#edbeae" d="M 160.390625 50.148438 C 160.453125 50.609375 160.464844 51.054688 160.425781 51.492188 C 160.386719 51.929688 160.296875 52.324219 160.15625 52.671875 C 160.015625 53.023438 159.839844 53.300781 159.621094 53.511719 C 159.40625 53.71875 159.164062 53.84375 158.902344 53.878906 C 158.640625 53.917969 158.378906 53.863281 158.113281 53.722656 C 157.847656 53.582031 157.597656 53.363281 157.367188 53.066406 C 157.136719 52.765625 156.941406 52.414062 156.78125 52.003906 C 156.621094 51.59375 156.511719 51.164062 156.445312 50.703125 C 156.378906 50.246094 156.367188 49.800781 156.410156 49.363281 C 156.449219 48.925781 156.539062 48.53125 156.679688 48.179688 C 156.816406 47.832031 156.996094 47.550781 157.214844 47.34375 C 157.429688 47.132812 157.667969 47.011719 157.929688 46.972656 C 158.191406 46.9375 158.457031 46.988281 158.722656 47.132812 C 158.988281 47.273438 159.238281 47.492188 159.46875 47.789062 C 159.699219 48.085938 159.894531 48.441406 160.054688 48.851562 C 160.210938 49.257812 160.324219 49.691406 160.390625 50.148438 Z M 160.390625 50.148438 " fill-opacity="1" fill-rule="nonzero"/><g clip-path="url(#1199840b5a)"><path fill="#65928f" d="M 206.980469 233.972656 L 33.074219 233.972656 L 46.160156 189.160156 C 54.980469 158.882812 100.070312 166.964844 100.070312 166.964844 C 100.070312 166.964844 107.910156 179.46875 120 180.128906 C 132.089844 179.46875 139.929688 166.964844 139.929688 166.964844 C 139.929688 166.964844 185.015625 158.882812 193.839844 189.160156 C 202.660156 219.4375 206.980469 233.972656 206.980469 233.972656 Z M 206.980469 233.972656 " fill-opacity="1" fill-rule="nonzero"/></g><path fill="#edbeae" d="M 66.371094 198.167969 L 67.769531 198.050781 L 70.601562 231.921875 L 69.203125 232.039062 Z M 66.371094 198.167969 " fill-opacity="1" fill-rule="nonzero"/><path fill="#edbeae" d="M 165.824219 231.910156 L 168.648438 198.042969 L 170.046875 198.15625 L 167.222656 232.027344 Z M 165.824219 231.910156 " fill-opacity="1" fill-rule="nonzero"/><path fill="#cc7d7c" d="M 16.699219 19.203125 C 33.648438 28.542969 17.28125 38.503906 16.863281 19.105469 C 17.28125 38.503906 0.496094 29.261719 17.027344 19.195312 C 0.492188 29.261719 0.0820312 10.046875 17.027344 19.386719 C 0.0820312 10.046875 16.453125 0.0859375 16.875 19.484375 C 16.457031 0.0859375 33.242188 9.328125 16.707031 19.394531 C 33.234375 9.328125 33.648438 28.542969 16.699219 19.203125 Z M 16.699219 19.203125 " fill-opacity="1" fill-rule="nonzero"/><path fill="#fbdcd9" d="M 18.402344 19.296875 C 18.402344 19.5 18.363281 19.695312 18.285156 19.886719 C 18.207031 20.074219 18.097656 20.242188 17.953125 20.386719 C 17.808594 20.53125 17.644531 20.640625 17.453125 20.71875 C 17.265625 20.796875 17.070312 20.835938 16.867188 20.835938 C 16.664062 20.835938 16.464844 20.796875 16.277344 20.71875 C 16.089844 20.640625 15.921875 20.53125 15.78125 20.386719 C 15.636719 20.242188 15.523438 20.074219 15.445312 19.886719 C 15.367188 19.695312 15.328125 19.5 15.328125 19.296875 C 15.328125 19.089844 15.367188 18.894531 15.445312 18.703125 C 15.523438 18.515625 15.636719 18.347656 15.78125 18.203125 C 15.921875 18.058594 16.089844 17.949219 16.277344 17.871094 C 16.464844 17.792969 16.664062 17.753906 16.867188 17.753906 C 17.070312 17.753906 17.265625 17.792969 17.453125 17.871094 C 17.644531 17.949219 17.808594 18.058594 17.953125 18.203125 C 18.097656 18.347656 18.207031 18.515625 18.285156 18.703125 C 18.363281 18.894531 18.402344 19.089844 18.402344 19.296875 Z M 18.402344 19.296875 " fill-opacity="1" fill-rule="nonzero"/><path fill="#ddd4d4" d="M 37.246094 12.269531 C 47.289062 17.800781 37.589844 23.707031 37.34375 12.210938 C 37.589844 23.707031 27.644531 18.230469 37.441406 12.265625 C 27.644531 18.230469 27.398438 6.84375 37.441406 12.378906 C 27.394531 6.847656 37.097656 0.941406 37.34375 12.4375 C 37.097656 0.941406 47.042969 6.417969 37.246094 12.382812 C 47.046875 6.417969 47.289062 17.804688 37.246094 12.269531 Z M 37.246094 12.269531 " fill-opacity="1" fill-rule="nonzero"/><path fill="#fbdcd9" d="M 38.253906 12.324219 C 38.253906 12.578125 38.167969 12.792969 37.988281 12.96875 C 37.8125 13.148438 37.597656 13.238281 37.34375 13.238281 C 37.09375 13.238281 36.878906 13.148438 36.699219 12.96875 C 36.523438 12.792969 36.433594 12.578125 36.433594 12.324219 C 36.433594 12.070312 36.523438 11.855469 36.699219 11.675781 C 36.878906 11.5 37.09375 11.410156 37.34375 11.410156 C 37.597656 11.410156 37.8125 11.5 37.988281 11.675781 C 38.167969 11.855469 38.253906 12.070312 38.253906 12.324219 Z M 38.253906 12.324219 " fill-opacity="1" fill-rule="nonzero"/><path fill="#f9afa6" d="M 35.425781 33.847656 C 47.925781 40.738281 35.851562 48.085938 35.542969 33.777344 C 35.851562 48.085938 23.472656 41.265625 35.667969 33.84375 C 23.472656 41.265625 23.167969 27.097656 35.667969 33.984375 C 23.164062 27.097656 35.238281 19.746094 35.546875 34.054688 C 35.242188 19.746094 47.621094 26.566406 35.425781 33.988281 C 47.621094 26.566406 47.925781 40.742188 35.425781 33.847656 Z M 35.425781 33.847656 " fill-opacity="1" fill-rule="nonzero"/><path fill="#fbdcd9" d="M 36.679688 33.917969 C 36.679688 34.066406 36.652344 34.210938 36.59375 34.351562 C 36.535156 34.492188 36.453125 34.613281 36.347656 34.71875 C 36.242188 34.828125 36.121094 34.910156 35.980469 34.964844 C 35.84375 35.023438 35.699219 35.054688 35.546875 35.054688 C 35.398438 35.054688 35.253906 35.023438 35.113281 34.964844 C 34.976562 34.910156 34.851562 34.828125 34.746094 34.71875 C 34.640625 34.613281 34.558594 34.492188 34.5 34.351562 C 34.441406 34.210938 34.414062 34.066406 34.414062 33.917969 C 34.414062 33.765625 34.441406 33.621094 34.5 33.480469 C 34.558594 33.339844 34.640625 33.21875 34.746094 33.113281 C 34.851562 33.003906 34.976562 32.921875 35.113281 32.867188 C 35.253906 32.808594 35.398438 32.777344 35.546875 32.777344 C 35.699219 32.777344 35.84375 32.808594 35.980469 32.867188 C 36.121094 32.921875 36.242188 33.003906 36.347656 33.113281 C 36.453125 33.21875 36.535156 33.339844 36.59375 33.480469 C 36.652344 33.621094 36.679688 33.765625 36.679688 33.917969 Z M 36.679688 33.917969 " fill-opacity="1" fill-rule="nonzero"/><path fill="#cc7d7c" d="M 213.828125 214.101562 C 225.742188 220.667969 214.234375 227.675781 213.941406 214.035156 C 214.234375 227.675781 202.4375 221.175781 214.058594 214.097656 C 202.433594 221.175781 202.144531 207.667969 214.058594 214.230469 C 202.144531 207.667969 213.652344 200.660156 213.949219 214.300781 C 213.65625 200.660156 225.457031 207.160156 213.832031 214.238281 C 225.453125 207.160156 225.742188 220.667969 213.828125 214.101562 Z M 213.828125 214.101562 " fill-opacity="1" fill-rule="nonzero"/><path fill="#fbdcd9" d="M 215.023438 214.167969 C 215.023438 214.3125 214.996094 214.449219 214.941406 214.582031 C 214.886719 214.714844 214.808594 214.832031 214.707031 214.933594 C 214.605469 215.035156 214.492188 215.113281 214.359375 215.171875 C 214.226562 215.226562 214.085938 215.253906 213.945312 215.253906 C 213.800781 215.253906 213.664062 215.226562 213.53125 215.171875 C 213.398438 215.113281 213.28125 215.035156 213.179688 214.933594 C 213.078125 214.832031 213 214.714844 212.945312 214.582031 C 212.890625 214.449219 212.863281 214.3125 212.863281 214.167969 C 212.863281 214.023438 212.890625 213.886719 212.945312 213.753906 C 213 213.621094 213.078125 213.503906 213.179688 213.402344 C 213.28125 213.300781 213.398438 213.222656 213.53125 213.164062 C 213.664062 213.109375 213.800781 213.082031 213.945312 213.082031 C 214.085938 213.082031 214.226562 213.109375 214.359375 213.164062 C 214.492188 213.222656 214.605469 213.300781 214.707031 213.402344 C 214.808594 213.503906 214.886719 213.621094 214.941406 213.753906 C 214.996094 213.886719 215.023438 214.023438 215.023438 214.167969 Z M 215.023438 214.167969 " fill-opacity="1" fill-rule="nonzero"/><path fill="#ddd4d4" d="M 228.273438 209.230469 C 235.332031 213.117188 228.511719 217.269531 228.339844 209.1875 C 228.511719 217.269531 221.523438 213.417969 228.410156 209.226562 C 221.519531 213.417969 221.347656 205.414062 228.410156 209.304688 C 221.347656 205.414062 228.167969 201.261719 228.339844 209.34375 C 228.167969 201.261719 235.160156 205.113281 228.269531 209.308594 C 235.160156 205.113281 235.332031 213.117188 228.273438 209.230469 Z M 228.273438 209.230469 " fill-opacity="1" fill-rule="nonzero"/><path fill="#fbdcd9" d="M 228.980469 209.265625 C 228.980469 209.445312 228.917969 209.59375 228.792969 209.722656 C 228.667969 209.847656 228.519531 209.910156 228.339844 209.910156 C 228.164062 209.910156 228.011719 209.847656 227.886719 209.722656 C 227.761719 209.59375 227.699219 209.445312 227.699219 209.265625 C 227.699219 209.089844 227.761719 208.9375 227.886719 208.8125 C 228.011719 208.6875 228.164062 208.625 228.339844 208.625 C 228.519531 208.625 228.667969 208.6875 228.792969 208.8125 C 228.917969 208.9375 228.980469 209.089844 228.980469 209.265625 Z M 228.980469 209.265625 " fill-opacity="1" fill-rule="nonzero"/><path fill="#f9afa6" d="M 226.992188 224.402344 C 235.78125 229.246094 227.292969 234.414062 227.074219 224.351562 C 227.289062 234.414062 218.589844 229.617188 227.160156 224.398438 C 218.589844 229.617188 218.375 219.652344 227.160156 224.496094 C 218.371094 219.652344 226.859375 214.484375 227.078125 224.546875 C 226.863281 214.484375 235.566406 219.28125 226.992188 224.5 C 235.566406 219.28125 235.78125 229.25 226.992188 224.402344 Z M 226.992188 224.402344 " fill-opacity="1" fill-rule="nonzero"/><path fill="#fbdcd9" d="M 227.875 224.449219 C 227.875 224.667969 227.796875 224.859375 227.640625 225.015625 C 227.484375 225.171875 227.296875 225.25 227.078125 225.25 C 226.859375 225.25 226.667969 225.171875 226.515625 225.015625 C 226.359375 224.859375 226.28125 224.667969 226.28125 224.449219 C 226.28125 224.226562 226.359375 224.039062 226.515625 223.882812 C 226.667969 223.726562 226.859375 223.648438 227.078125 223.648438 C 227.296875 223.648438 227.484375 223.726562 227.640625 223.882812 C 227.796875 224.039062 227.875 224.226562 227.875 224.449219 Z M 227.875 224.449219 " fill-opacity="1" fill-rule="nonzero"/><path fill="#739f8f" d="M 205.976562 17.488281 C 206.484375 17.527344 205.703125 19.496094 205.203125 20.210938 C 203.738281 22.285156 201.632812 23.988281 199.140625 24.773438 C 198.652344 24.929688 198.160156 25.078125 197.667969 25.214844 C 197.640625 25.222656 197.109375 25.4375 197.097656 25.425781 C 197.082031 25.410156 197.253906 24.664062 198.238281 22.804688 C 199.816406 19.828125 200.820312 19.265625 204.007812 18.21875 C 204.546875 18.042969 205.328125 17.496094 205.792969 17.460938 " fill-opacity="1" fill-rule="evenodd"/><g clip-path="url(#701b1055b7)"><path fill="#739f8f" d="M 205.621094 17.121094 C 205.515625 17.140625 205.402344 17.175781 205.28125 17.222656 C 204.84375 17.390625 204.296875 17.734375 203.890625 17.863281 C 202.242188 18.394531 201.164062 18.8125 200.285156 19.46875 C 199.390625 20.136719 198.703125 21.054688 197.867188 22.609375 C 197.1875 23.875 196.878906 24.640625 196.753906 25.011719 C 196.699219 25.171875 196.675781 25.273438 196.667969 25.324219 C 196.617188 25.605469 196.785156 25.730469 196.8125 25.753906 C 196.832031 25.769531 197.019531 25.914062 197.296875 25.820312 C 197.433594 25.777344 197.765625 25.644531 197.785156 25.636719 L 199.277344 25.199219 C 200.570312 24.800781 201.769531 24.160156 202.832031 23.355469 C 203.902344 22.546875 204.839844 21.570312 205.609375 20.492188 C 205.984375 19.960938 206.507812 18.789062 206.625 18.085938 C 206.671875 17.789062 206.648438 17.550781 206.585938 17.398438 C 206.480469 17.140625 206.289062 17 206.019531 16.980469 C 205.867188 16.964844 205.722656 17.023438 205.621094 17.121094 Z M 205.613281 17.875 C 205.542969 17.902344 205.46875 17.933594 205.390625 17.96875 C 204.972656 18.164062 204.492188 18.449219 204.125 18.574219 C 202.59375 19.085938 201.582031 19.472656 200.769531 20.097656 C 199.960938 20.714844 199.359375 21.570312 198.613281 23 C 198.21875 23.75 197.960938 24.3125 197.792969 24.71875 L 199.003906 24.347656 C 200.191406 23.964844 201.285156 23.363281 202.257812 22.613281 C 203.238281 21.851562 204.09375 20.933594 204.796875 19.925781 C 205.039062 19.582031 205.34375 18.910156 205.515625 18.351562 C 205.5625 18.199219 205.597656 18 205.613281 17.875 Z M 205.613281 17.875 " fill-opacity="1" fill-rule="evenodd"/></g><path fill="#f8f5ee" d="M 205.753906 17.53125 C 205.757812 17.539062 205.75 17.550781 205.746094 17.558594 C 205.730469 17.59375 205.707031 17.625 205.679688 17.660156 C 205.597656 17.761719 205.484375 17.867188 205.4375 17.9375 C 205.273438 18.175781 205.039062 18.421875 204.785156 18.644531 C 204.53125 18.867188 204.253906 19.070312 204.003906 19.230469 C 202.597656 20.121094 201.265625 21.019531 200.078125 22.097656 C 199.292969 22.816406 198.574219 23.609375 197.941406 24.53125 C 197.921875 24.558594 197.929688 24.597656 197.957031 24.617188 C 197.984375 24.636719 198.023438 24.628906 198.039062 24.601562 C 198.671875 23.6875 199.390625 22.90625 200.171875 22.199219 C 201.355469 21.128906 202.6875 20.242188 204.089844 19.363281 C 204.347656 19.203125 204.632812 18.996094 204.894531 18.765625 C 205.160156 18.535156 205.40625 18.28125 205.578125 18.03125 C 205.640625 17.941406 205.820312 17.78125 205.886719 17.65625 C 205.921875 17.585938 205.933594 17.523438 205.914062 17.472656 C 205.898438 17.429688 205.847656 17.40625 205.804688 17.421875 C 205.761719 17.4375 205.738281 17.488281 205.753906 17.53125 Z M 205.753906 17.53125 " fill-opacity="1" fill-rule="evenodd"/><path fill="#f8f5ee" d="M 204.464844 18.835938 C 204.339844 18.847656 204.210938 18.859375 204.078125 18.878906 C 203.574219 18.945312 203.054688 19.054688 202.550781 19.097656 C 202.515625 19.101562 202.492188 19.128906 202.492188 19.164062 C 202.496094 19.195312 202.523438 19.222656 202.558594 19.21875 C 203.066406 19.1875 203.59375 19.089844 204.097656 19.039062 C 204.226562 19.023438 204.351562 19.011719 204.476562 19.007812 C 204.523438 19.003906 204.558594 18.960938 204.558594 18.914062 C 204.554688 18.871094 204.515625 18.832031 204.464844 18.835938 Z M 204.464844 18.835938 " fill-opacity="1" fill-rule="evenodd"/><path fill="#f8f5ee" d="M 199.847656 22.289062 C 199.796875 22.296875 199.679688 22.308594 199.65625 22.3125 C 199.558594 22.328125 199.460938 22.34375 199.367188 22.367188 C 199.300781 22.378906 199.234375 22.394531 199.167969 22.414062 C 199.089844 22.4375 199.015625 22.464844 198.941406 22.496094 C 198.777344 22.566406 198.617188 22.652344 198.449219 22.707031 C 198.359375 22.738281 198.273438 22.769531 198.1875 22.800781 C 198.101562 22.835938 198.015625 22.871094 197.933594 22.910156 C 197.902344 22.921875 197.890625 22.960938 197.902344 22.988281 C 197.917969 23.019531 197.953125 23.035156 197.984375 23.019531 C 198.066406 22.984375 198.148438 22.953125 198.234375 22.921875 C 198.320312 22.890625 198.40625 22.863281 198.488281 22.835938 C 198.664062 22.78125 198.828125 22.699219 199 22.632812 C 199.066406 22.605469 199.136719 22.582031 199.210938 22.5625 C 199.273438 22.542969 199.335938 22.53125 199.398438 22.519531 C 199.492188 22.503906 199.589844 22.488281 199.6875 22.472656 C 199.707031 22.46875 199.828125 22.460938 199.875 22.453125 C 199.898438 22.453125 199.914062 22.445312 199.917969 22.441406 C 199.96875 22.417969 199.96875 22.378906 199.96875 22.355469 C 199.960938 22.308594 199.917969 22.277344 199.871094 22.28125 C 199.863281 22.28125 199.855469 22.285156 199.847656 22.289062 Z M 199.808594 22.320312 C 199.796875 22.339844 199.796875 22.359375 199.796875 22.375 C 199.796875 22.355469 199.800781 22.335938 199.808594 22.320312 Z M 199.808594 22.320312 " fill-opacity="1" fill-rule="evenodd"/><path fill="#f8f5ee" d="M 201.046875 21.507812 C 201.058594 21.484375 201.054688 21.457031 201.039062 21.433594 C 201.015625 21.394531 200.960938 21.382812 200.921875 21.410156 C 200.902344 21.421875 200.886719 21.441406 200.878906 21.472656 C 200.875 21.488281 200.875 21.511719 200.878906 21.535156 C 200.882812 21.5625 200.894531 21.59375 200.898438 21.605469 C 200.910156 21.675781 200.917969 21.742188 200.921875 21.8125 C 200.925781 21.878906 200.921875 21.949219 200.914062 22.015625 C 200.890625 22.183594 200.867188 22.351562 200.828125 22.515625 C 200.792969 22.679688 200.75 22.839844 200.691406 23 C 200.675781 23.03125 200.664062 23.0625 200.648438 23.09375 C 200.609375 23.175781 200.566406 23.25 200.53125 23.332031 C 200.507812 23.394531 200.488281 23.457031 200.476562 23.519531 C 200.457031 23.613281 200.445312 23.707031 200.441406 23.800781 C 200.4375 23.835938 200.460938 23.863281 200.496094 23.867188 C 200.527344 23.867188 200.558594 23.84375 200.5625 23.808594 C 200.566406 23.738281 200.574219 23.664062 200.589844 23.589844 C 200.605469 23.519531 200.625 23.449219 200.652344 23.382812 C 200.6875 23.304688 200.730469 23.230469 200.769531 23.15625 C 200.789062 23.121094 200.804688 23.085938 200.820312 23.046875 C 200.882812 22.886719 200.933594 22.71875 200.972656 22.550781 C 201.015625 22.382812 201.046875 22.210938 201.070312 22.039062 C 201.085938 21.960938 201.085938 21.882812 201.085938 21.808594 C 201.082031 21.730469 201.074219 21.65625 201.0625 21.578125 C 201.0625 21.570312 201.050781 21.527344 201.046875 21.507812 Z M 201.046875 21.507812 " fill-opacity="1" fill-rule="evenodd"/><path fill="#f8f5ee" d="M 202.507812 20.15625 C 202.460938 20.144531 202.351562 20.105469 202.347656 20.105469 C 202.246094 20.078125 202.144531 20.050781 202.039062 20.035156 C 201.96875 20.023438 201.898438 20.011719 201.828125 20.007812 C 201.625 19.996094 201.417969 20.007812 201.214844 20.027344 C 200.914062 20.0625 200.613281 20.121094 200.320312 20.171875 C 200.285156 20.175781 200.261719 20.207031 200.269531 20.242188 C 200.273438 20.273438 200.304688 20.296875 200.335938 20.289062 C 200.628906 20.25 200.929688 20.195312 201.226562 20.167969 C 201.425781 20.152344 201.621094 20.144531 201.816406 20.164062 C 201.898438 20.167969 201.980469 20.183594 202.058594 20.199219 C 202.140625 20.21875 202.222656 20.238281 202.300781 20.261719 C 202.304688 20.265625 202.421875 20.308594 202.46875 20.324219 C 202.496094 20.328125 202.511719 20.328125 202.519531 20.328125 C 202.546875 20.324219 202.5625 20.308594 202.574219 20.300781 C 202.589844 20.28125 202.597656 20.261719 202.597656 20.238281 C 202.59375 20.191406 202.554688 20.15625 202.507812 20.15625 Z M 202.453125 20.179688 C 202.433594 20.195312 202.421875 20.21875 202.425781 20.246094 C 202.421875 20.21875 202.433594 20.195312 202.453125 20.179688 Z M 202.453125 20.179688 " fill-opacity="1" fill-rule="evenodd"/><path fill="#f8f5ee" d="M 203.390625 19.800781 C 203.398438 19.820312 203.4375 19.925781 203.445312 19.945312 C 203.476562 20.039062 203.503906 20.128906 203.515625 20.21875 C 203.53125 20.304688 203.535156 20.394531 203.523438 20.488281 C 203.503906 20.632812 203.457031 20.773438 203.402344 20.910156 C 203.320312 21.121094 203.210938 21.328125 203.125 21.539062 C 203.058594 21.707031 202.996094 21.878906 202.9375 22.054688 C 202.851562 22.3125 202.777344 22.578125 202.691406 22.835938 C 202.683594 22.867188 202.699219 22.902344 202.730469 22.910156 C 202.765625 22.921875 202.796875 22.90625 202.808594 22.871094 C 202.894531 22.617188 202.976562 22.355469 203.066406 22.097656 C 203.125 21.925781 203.1875 21.757812 203.257812 21.589844 C 203.359375 21.347656 203.496094 21.109375 203.585938 20.859375 C 203.628906 20.746094 203.660156 20.628906 203.679688 20.511719 C 203.695312 20.421875 203.695312 20.339844 203.6875 20.253906 C 203.675781 20.132812 203.644531 20.015625 203.601562 19.890625 C 203.597656 19.871094 203.570312 19.777344 203.546875 19.726562 C 203.523438 19.683594 203.492188 19.660156 203.472656 19.652344 C 203.425781 19.636719 203.378906 19.664062 203.363281 19.707031 C 203.351562 19.742188 203.363281 19.777344 203.390625 19.800781 Z M 203.390625 19.800781 " fill-opacity="1" fill-rule="evenodd"/><g clip-path="url(#4c04731083)"><path fill="#739f8f" d="M 225.933594 26.320312 C 226.046875 25.828125 227.890625 26.890625 228.523438 27.492188 C 230.371094 29.242188 231.746094 31.566406 232.15625 34.132812 C 232.234375 34.636719 232.3125 35.140625 232.375 35.648438 C 232.375 35.671875 232.507812 36.226562 232.496094 36.238281 C 232.480469 36.253906 231.761719 35.96875 230.058594 34.722656 C 227.335938 32.726562 226.925781 31.65625 226.363281 28.367188 C 226.269531 27.8125 225.84375 26.960938 225.878906 26.5 " fill-opacity="1" fill-rule="evenodd"/></g><g clip-path="url(#33326c0706)"><path fill="#739f8f" d="M 225.515625 26.617188 C 225.519531 26.722656 225.535156 26.839844 225.5625 26.964844 C 225.664062 27.421875 225.925781 28.011719 225.992188 28.429688 C 226.273438 30.125 226.527344 31.25 227.046875 32.210938 C 227.578125 33.1875 228.386719 34.003906 229.808594 35.058594 C 230.96875 35.917969 231.679688 36.332031 232.035156 36.511719 C 232.183594 36.589844 232.28125 36.628906 232.328125 36.644531 C 232.601562 36.738281 232.753906 36.589844 232.78125 36.570312 C 232.800781 36.550781 232.96875 36.386719 232.917969 36.101562 C 232.894531 35.960938 232.8125 35.613281 232.8125 35.59375 L 232.601562 34.0625 C 232.394531 32.730469 231.941406 31.460938 231.300781 30.292969 C 230.65625 29.121094 229.824219 28.054688 228.867188 27.136719 C 228.394531 26.683594 227.308594 25.996094 226.625 25.777344 C 226.339844 25.683594 226.09375 25.671875 225.933594 25.710938 C 225.660156 25.773438 225.496094 25.941406 225.433594 26.203125 C 225.398438 26.351562 225.433594 26.5 225.515625 26.617188 Z M 226.261719 26.738281 C 226.277344 26.808594 226.300781 26.886719 226.324219 26.972656 C 226.453125 27.410156 226.667969 27.925781 226.734375 28.304688 C 227.015625 29.886719 227.25 30.9375 227.746094 31.832031 C 228.242188 32.71875 229 33.4375 230.308594 34.386719 C 230.996094 34.882812 231.519531 35.222656 231.898438 35.445312 L 231.710938 34.203125 C 231.507812 32.980469 231.074219 31.816406 230.472656 30.746094 C 229.863281 29.667969 229.078125 28.6875 228.183594 27.847656 C 227.875 27.558594 227.253906 27.15625 226.722656 26.90625 C 226.578125 26.835938 226.386719 26.773438 226.261719 26.738281 Z M 226.261719 26.738281 " fill-opacity="1" fill-rule="evenodd"/></g><path fill="#f8f5ee" d="M 225.941406 26.546875 C 225.953125 26.546875 225.960938 26.554688 225.96875 26.5625 C 226 26.578125 226.03125 26.609375 226.0625 26.640625 C 226.148438 26.738281 226.238281 26.863281 226.296875 26.917969 C 226.511719 27.117188 226.722656 27.382812 226.90625 27.667969 C 227.089844 27.949219 227.25 28.25 227.371094 28.519531 C 228.042969 30.039062 228.738281 31.480469 229.632812 32.808594 C 230.226562 33.6875 230.910156 34.515625 231.734375 35.273438 C 231.757812 35.296875 231.796875 35.296875 231.820312 35.273438 C 231.84375 35.25 231.839844 35.210938 231.816406 35.1875 C 231.003906 34.429688 230.332031 33.605469 229.746094 32.734375 C 228.863281 31.410156 228.179688 29.96875 227.515625 28.457031 C 227.394531 28.179688 227.230469 27.871094 227.042969 27.578125 C 226.851562 27.28125 226.636719 27.003906 226.414062 26.796875 C 226.332031 26.71875 226.203125 26.523438 226.085938 26.433594 C 226.023438 26.390625 225.960938 26.371094 225.910156 26.382812 C 225.863281 26.390625 225.832031 26.433594 225.84375 26.480469 C 225.851562 26.527344 225.894531 26.558594 225.941406 26.546875 Z M 225.941406 26.546875 " fill-opacity="1" fill-rule="evenodd"/><path fill="#f8f5ee" d="M 227.046875 28.007812 C 227.039062 28.136719 227.035156 28.265625 227.03125 28.398438 C 227.023438 28.898438 227.054688 29.429688 227.019531 29.929688 C 227.019531 29.964844 227.042969 29.992188 227.078125 29.996094 C 227.109375 30 227.140625 29.972656 227.140625 29.941406 C 227.1875 29.4375 227.167969 28.90625 227.191406 28.402344 C 227.199219 28.273438 227.207031 28.148438 227.21875 28.023438 C 227.222656 27.976562 227.1875 27.933594 227.140625 27.929688 C 227.09375 27.925781 227.050781 27.960938 227.046875 28.007812 Z M 227.046875 28.007812 " fill-opacity="1" fill-rule="evenodd"/><path fill="#f8f5ee" d="M 229.789062 33.066406 C 229.789062 33.113281 229.78125 33.234375 229.78125 33.253906 C 229.785156 33.355469 229.785156 33.453125 229.792969 33.550781 C 229.796875 33.617188 229.800781 33.683594 229.8125 33.75 C 229.820312 33.828125 229.839844 33.90625 229.859375 33.984375 C 229.902344 34.160156 229.964844 34.328125 229.996094 34.503906 C 230.011719 34.59375 230.03125 34.683594 230.050781 34.773438 C 230.070312 34.863281 230.09375 34.953125 230.117188 35.039062 C 230.128906 35.070312 230.160156 35.089844 230.191406 35.082031 C 230.226562 35.070312 230.246094 35.039062 230.234375 35.007812 C 230.214844 34.921875 230.195312 34.832031 230.175781 34.746094 C 230.15625 34.65625 230.140625 34.570312 230.128906 34.480469 C 230.101562 34.300781 230.042969 34.128906 230.003906 33.949219 C 229.984375 33.878906 229.972656 33.804688 229.964844 33.730469 C 229.957031 33.667969 229.953125 33.605469 229.949219 33.542969 C 229.949219 33.445312 229.949219 33.347656 229.945312 33.25 C 229.945312 33.230469 229.957031 33.109375 229.957031 33.0625 C 229.957031 33.039062 229.953125 33.023438 229.953125 33.015625 C 229.9375 32.964844 229.898438 32.957031 229.875 32.957031 C 229.828125 32.957031 229.785156 32.992188 229.785156 33.039062 C 229.785156 33.046875 229.785156 33.054688 229.789062 33.066406 Z M 229.8125 33.105469 C 229.832031 33.121094 229.847656 33.125 229.867188 33.128906 C 229.847656 33.125 229.828125 33.117188 229.8125 33.105469 Z M 229.8125 33.105469 " fill-opacity="1" fill-rule="evenodd"/><path fill="#f8f5ee" d="M 229.191406 31.769531 C 229.171875 31.757812 229.140625 31.753906 229.117188 31.765625 C 229.074219 31.785156 229.054688 31.835938 229.074219 31.878906 C 229.085938 31.898438 229.101562 31.917969 229.128906 31.929688 C 229.144531 31.933594 229.167969 31.9375 229.195312 31.9375 C 229.222656 31.9375 229.253906 31.929688 229.265625 31.929688 C 229.335938 31.929688 229.40625 31.929688 229.476562 31.9375 C 229.542969 31.945312 229.609375 31.957031 229.679688 31.976562 C 229.839844 32.023438 230.003906 32.074219 230.164062 32.132812 C 230.320312 32.195312 230.472656 32.261719 230.621094 32.34375 C 230.652344 32.359375 230.683594 32.378906 230.710938 32.398438 C 230.785156 32.449219 230.851562 32.503906 230.929688 32.550781 C 230.984375 32.582031 231.046875 32.609375 231.105469 32.632812 C 231.195312 32.667969 231.289062 32.691406 231.382812 32.710938 C 231.414062 32.71875 231.445312 32.699219 231.453125 32.664062 C 231.460938 32.632812 231.441406 32.601562 231.410156 32.59375 C 231.335938 32.574219 231.265625 32.554688 231.195312 32.53125 C 231.125 32.507812 231.058594 32.476562 230.996094 32.4375 C 230.925781 32.394531 230.859375 32.339844 230.789062 32.289062 C 230.757812 32.265625 230.726562 32.242188 230.691406 32.222656 C 230.539062 32.136719 230.378906 32.0625 230.21875 31.996094 C 230.054688 31.933594 229.890625 31.875 229.722656 31.824219 C 229.648438 31.800781 229.570312 31.785156 229.496094 31.777344 C 229.417969 31.765625 229.34375 31.761719 229.265625 31.761719 C 229.253906 31.761719 229.210938 31.765625 229.191406 31.769531 Z M 229.191406 31.769531 " fill-opacity="1" fill-rule="evenodd"/><path fill="#f8f5ee" d="M 228.066406 30.128906 C 228.046875 30.175781 227.992188 30.277344 227.992188 30.28125 C 227.949219 30.378906 227.90625 30.472656 227.875 30.574219 C 227.851562 30.640625 227.832031 30.707031 227.816406 30.777344 C 227.773438 30.976562 227.753906 31.179688 227.746094 31.382812 C 227.734375 31.683594 227.75 31.988281 227.753906 32.285156 C 227.753906 32.316406 227.78125 32.34375 227.8125 32.34375 C 227.847656 32.34375 227.875 32.316406 227.875 32.28125 C 227.875 31.988281 227.867188 31.6875 227.886719 31.390625 C 227.898438 31.195312 227.921875 31 227.96875 30.8125 C 227.988281 30.730469 228.015625 30.652344 228.042969 30.578125 C 228.074219 30.5 228.105469 30.425781 228.140625 30.347656 C 228.144531 30.34375 228.207031 30.238281 228.226562 30.191406 C 228.238281 30.167969 228.238281 30.152344 228.238281 30.144531 C 228.238281 30.117188 228.226562 30.097656 228.21875 30.085938 C 228.203125 30.070312 228.183594 30.058594 228.160156 30.058594 C 228.117188 30.050781 228.074219 30.085938 228.066406 30.128906 Z M 228.082031 30.1875 C 228.09375 30.210938 228.117188 30.222656 228.144531 30.226562 C 228.117188 30.222656 228.09375 30.207031 228.082031 30.1875 Z M 228.082031 30.1875 " fill-opacity="1" fill-rule="evenodd"/><path fill="#f8f5ee" d="M 227.84375 29.210938 C 227.867188 29.207031 227.980469 29.183594 227.996094 29.179688 C 228.09375 29.164062 228.1875 29.148438 228.28125 29.148438 C 228.367188 29.148438 228.457031 29.15625 228.550781 29.183594 C 228.691406 29.226562 228.824219 29.289062 228.953125 29.363281 C 229.148438 29.480469 229.339844 29.617188 229.535156 29.730469 C 229.691406 29.824219 229.855469 29.910156 230.019531 29.992188 C 230.265625 30.117188 230.515625 30.230469 230.761719 30.351562 C 230.789062 30.367188 230.828125 30.355469 230.839844 30.324219 C 230.855469 30.296875 230.84375 30.257812 230.816406 30.242188 C 230.570312 30.121094 230.324219 30 230.082031 29.875 C 229.921875 29.789062 229.761719 29.703125 229.605469 29.609375 C 229.378906 29.472656 229.164062 29.304688 228.925781 29.175781 C 228.820312 29.117188 228.710938 29.070312 228.597656 29.03125 C 228.507812 29.007812 228.425781 28.992188 228.34375 28.988281 C 228.21875 28.980469 228.097656 28.996094 227.96875 29.015625 C 227.945312 29.019531 227.851562 29.03125 227.796875 29.046875 C 227.746094 29.0625 227.71875 29.089844 227.710938 29.109375 C 227.6875 29.152344 227.707031 29.203125 227.75 29.222656 C 227.78125 29.238281 227.816406 29.234375 227.84375 29.210938 Z M 227.84375 29.210938 " fill-opacity="1" fill-rule="evenodd"/><g clip-path="url(#b47855d718)"><path fill="#f1ebdb" d="M 208.3125 13.859375 C 208.234375 13.984375 207.785156 13.777344 207.6875 13.738281 C 207.007812 13.476562 206.320312 13.179688 205.679688 12.839844 C 205.132812 12.550781 204.46875 12.359375 203.960938 12.003906 C 202.425781 10.925781 200.191406 7.289062 202.332031 5.871094 C 204.128906 4.679688 206.074219 7.976562 206.726562 9.109375 C 206.984375 9.554688 207.183594 9.976562 207.339844 10.46875 C 207.558594 11.164062 207.804688 11.855469 208.039062 12.550781 C 208.109375 12.769531 208.265625 12.992188 208.300781 13.21875 C 208.316406 13.339844 208.359375 13.671875 208.417969 13.566406 C 208.460938 13.476562 208.292969 12.96875 208.269531 12.871094 C 208.144531 12.289062 208.09375 11.671875 208.039062 11.078125 C 207.988281 10.539062 208.007812 9.996094 208.007812 9.457031 C 208.007812 7.730469 208.726562 3.207031 211.503906 3.757812 C 212.566406 3.96875 212.65625 5.210938 212.609375 6.070312 C 212.496094 8.070312 210.992188 9.9375 210.074219 11.625 C 209.828125 12.085938 209.554688 12.519531 209.320312 12.984375 C 209.203125 13.214844 209.050781 13.429688 208.941406 13.652344 C 208.914062 13.707031 208.824219 13.796875 208.824219 13.796875 C 208.824219 13.796875 208.871094 13.675781 208.910156 13.621094 C 209.09375 13.378906 209.238281 13.058594 209.492188 12.871094 C 210.082031 12.429688 210.6875 11.929688 211.296875 11.480469 C 211.722656 11.171875 212.167969 10.933594 212.636719 10.699219 C 214.292969 9.878906 218.375 8.386719 219.070312 11.164062 C 219.289062 12.03125 218.632812 12.648438 218.054688 13.1875 C 216.324219 14.800781 213.695312 14.480469 211.53125 14.316406 C 210.84375 14.265625 210.070312 14.335938 209.40625 14.171875 C 209.128906 14.105469 208.8125 14.171875 208.53125 14.113281 C 208.503906 14.109375 208.445312 14.085938 208.445312 14.085938 L 208.589844 14.085938 C 208.828125 14.085938 209.125 14.195312 209.347656 14.257812 C 209.8125 14.386719 210.324219 14.546875 210.746094 14.78125 C 212.371094 15.679688 215.933594 16.519531 215.578125 19.003906 C 215.28125 21.058594 212.996094 21.257812 211.558594 20.304688 C 210.246094 19.433594 208.210938 15.914062 208.210938 14.199219 C 208.210938 14.113281 208.199219 14.375 208.210938 14.460938 C 208.246094 14.660156 208.285156 14.871094 208.328125 15.070312 C 208.464844 15.695312 208.585938 16.308594 208.648438 16.949219 C 208.816406 18.613281 208.761719 20.773438 207.484375 22.039062 C 207.039062 22.484375 206.414062 23.101562 205.707031 22.910156 C 205.003906 22.71875 204.726562 21.804688 204.691406 21.171875 C 204.578125 19.207031 205.683594 17.867188 206.667969 16.253906 C 206.976562 15.753906 207.347656 15.308594 207.660156 14.808594 C 207.695312 14.75 207.957031 14.199219 208.097656 14.199219 C 208.234375 14.199219 207.929688 14.421875 207.832031 14.519531 C 207.675781 14.679688 207.5 14.824219 207.339844 14.980469 C 206.882812 15.4375 206.378906 15.765625 205.855469 16.140625 C 204.527344 17.082031 202.460938 17.878906 200.816406 17.46875 C 200.160156 17.308594 199.386719 17.015625 199.097656 16.339844 C 198.476562 14.882812 199.476562 13.9375 200.644531 13.273438 C 202.503906 12.21875 206.261719 13.859375 208.3125 13.859375 Z M 208.3125 13.859375 " fill-opacity="1" fill-rule="evenodd"/></g><g clip-path="url(#dda3af854f)"><path fill="#f1ebdb" d="M 207.523438 9.582031 L 207.519531 9.570312 C 207.414062 9.335938 207.292969 9.105469 207.15625 8.867188 C 206.683594 8.046875 205.558594 6.175781 204.296875 5.457031 C 203.570312 5.039062 202.804688 4.960938 202.054688 5.457031 C 200.96875 6.171875 200.765625 7.34375 201.082031 8.578125 C 201.472656 10.117188 202.699219 11.734375 203.667969 12.414062 C 203.84375 12.539062 204.035156 12.644531 204.234375 12.742188 C 204.265625 12.757812 204.296875 12.773438 204.328125 12.785156 C 203.863281 12.695312 203.402344 12.625 202.960938 12.585938 C 201.996094 12.5 201.117188 12.578125 200.457031 12.953125 C 199.667969 13.398438 198.960938 13.980469 198.675781 14.71875 C 198.476562 15.226562 198.464844 15.8125 198.753906 16.488281 C 198.894531 16.824219 199.132812 17.085938 199.421875 17.289062 C 199.808594 17.5625 200.289062 17.726562 200.726562 17.835938 C 201.445312 18.015625 202.238281 17.984375 203.023438 17.816406 C 204.144531 17.570312 205.25 17.039062 206.078125 16.449219 L 206.089844 16.441406 C 205.558594 17.277344 205.03125 18.0625 204.683594 18.917969 C 204.40625 19.609375 204.246094 20.347656 204.292969 21.195312 C 204.316406 21.628906 204.445312 22.179688 204.714844 22.601562 C 204.925781 22.933594 205.222656 23.1875 205.601562 23.292969 C 205.984375 23.394531 206.351562 23.332031 206.691406 23.171875 C 207.101562 22.972656 207.472656 22.617188 207.769531 22.324219 C 208.335938 21.761719 208.6875 21.042969 208.890625 20.261719 C 209.085938 19.511719 209.140625 18.699219 209.121094 17.925781 C 209.8125 19.136719 210.664062 20.210938 211.328125 20.652344 C 212.144531 21.191406 213.199219 21.402344 214.09375 21.1875 C 215.039062 20.964844 215.820312 20.292969 216 19.0625 C 216.132812 18.152344 215.820312 17.421875 215.265625 16.824219 C 214.394531 15.886719 212.855469 15.296875 211.691406 14.765625 C 212.972656 14.867188 214.390625 14.996094 215.695312 14.765625 C 216.679688 14.59375 217.597656 14.21875 218.359375 13.511719 C 218.746094 13.152344 219.15625 12.75 219.378906 12.285156 C 219.554688 11.917969 219.621094 11.511719 219.507812 11.054688 C 219.164062 9.679688 218.136719 9.15625 216.894531 9.109375 C 215.355469 9.054688 213.453125 9.789062 212.433594 10.292969 C 212.140625 10.441406 211.855469 10.585938 211.582031 10.75 C 211.394531 10.863281 211.207031 10.984375 211.027344 11.113281 L 210.804688 11.285156 C 211.304688 10.4375 211.894531 9.550781 212.347656 8.625 C 212.742188 7.808594 213.03125 6.964844 213.078125 6.097656 C 213.113281 5.507812 213.074219 4.761719 212.789062 4.207031 C 212.558594 3.757812 212.183594 3.414062 211.59375 3.296875 C 210.230469 3.023438 209.265625 3.738281 208.617188 4.859375 C 207.800781 6.28125 207.527344 8.382812 207.527344 9.457031 Z M 207.921875 15.117188 L 207.925781 15.15625 C 208.007812 15.523438 208.082031 15.890625 208.144531 16.257812 C 208.183594 16.5 208.21875 16.742188 208.242188 16.988281 C 208.339844 17.9375 208.363281 19.058594 208.105469 20.0625 C 207.941406 20.703125 207.664062 21.296875 207.199219 21.757812 C 206.960938 21.996094 206.671875 22.292969 206.339844 22.453125 C 206.175781 22.53125 206 22.574219 205.8125 22.523438 C 205.570312 22.460938 205.417969 22.257812 205.304688 22.03125 C 205.167969 21.75 205.101562 21.417969 205.085938 21.152344 C 205.046875 20.429688 205.183594 19.796875 205.417969 19.207031 C 205.796875 18.257812 206.421875 17.40625 207.003906 16.457031 Z M 208.660156 14.601562 L 208.664062 14.636719 L 208.695312 14.808594 C 208.855469 15.546875 209.253906 16.464844 209.734375 17.332031 C 210.375 18.480469 211.164062 19.542969 211.792969 19.957031 C 212.414062 20.371094 213.21875 20.535156 213.898438 20.375 C 214.53125 20.222656 215.039062 19.765625 215.15625 18.945312 C 215.28125 18.089844 214.824219 17.480469 214.175781 16.992188 C 213.089844 16.167969 211.480469 15.675781 210.535156 15.15625 C 210.382812 15.070312 210.214844 14.996094 210.046875 14.933594 C 209.777344 14.832031 209.496094 14.746094 209.230469 14.675781 C 209.125 14.644531 209 14.601562 208.871094 14.570312 C 208.808594 14.570312 208.746094 14.570312 208.679688 14.566406 L 208.652344 14.566406 Z M 207.289062 14.128906 C 205.972656 13.921875 204.332031 13.441406 202.894531 13.316406 C 202.101562 13.25 201.371094 13.285156 200.828125 13.597656 C 200.300781 13.898438 199.804688 14.253906 199.515625 14.710938 C 199.257812 15.117188 199.195312 15.605469 199.445312 16.195312 C 199.558594 16.453125 199.769531 16.632812 200.007812 16.769531 C 200.289062 16.929688 200.613281 17.03125 200.910156 17.105469 C 201.667969 17.292969 202.527344 17.191406 203.347656 16.945312 C 204.191406 16.691406 205 16.277344 205.628906 15.828125 C 205.941406 15.605469 206.242188 15.402344 206.53125 15.175781 C 206.714844 15.03125 206.894531 14.878906 207.066406 14.710938 L 207.492188 14.308594 C 207.507812 14.28125 207.523438 14.253906 207.542969 14.226562 L 207.503906 14.214844 C 207.433594 14.183594 207.359375 14.15625 207.289062 14.128906 Z M 209.425781 13.734375 L 209.605469 13.414062 C 209.65625 13.347656 209.707031 13.285156 209.769531 13.238281 L 211.570312 11.847656 C 211.769531 11.703125 211.96875 11.574219 212.179688 11.457031 C 212.394531 11.332031 212.613281 11.21875 212.84375 11.105469 C 213.761719 10.648438 215.472656 9.960938 216.863281 10.007812 C 217.695312 10.039062 218.402344 10.351562 218.636719 11.273438 C 218.714844 11.574219 218.628906 11.835938 218.480469 12.066406 C 218.289062 12.363281 218.007812 12.621094 217.746094 12.867188 C 217.117188 13.453125 216.355469 13.753906 215.539062 13.898438 C 214.242188 14.128906 212.824219 13.976562 211.566406 13.882812 C 211.089844 13.847656 210.566406 13.871094 210.070312 13.835938 C 209.878906 13.820312 209.691406 13.796875 209.511719 13.75 C 209.484375 13.746094 209.453125 13.738281 209.425781 13.734375 Z M 207.792969 13.234375 C 207.488281 13.117188 207.179688 12.992188 206.878906 12.855469 C 206.550781 12.710938 206.230469 12.558594 205.917969 12.394531 C 205.53125 12.191406 205.089844 12.035156 204.683594 11.835938 C 204.53125 11.761719 204.386719 11.683594 204.253906 11.589844 C 203.429688 11.015625 202.390625 9.636719 202.054688 8.332031 C 201.847656 7.53125 201.90625 6.75 202.609375 6.28125 C 203.15625 5.917969 203.714844 6.1875 204.226562 6.609375 C 205.15625 7.382812 205.9375 8.722656 206.300781 9.351562 C 206.421875 9.5625 206.527344 9.765625 206.625 9.972656 C 206.714844 10.179688 206.796875 10.386719 206.871094 10.613281 L 207.574219 12.707031 Z M 208.804688 12.953125 L 208.800781 12.964844 C 208.773438 12.875 208.753906 12.800781 208.746094 12.769531 C 208.699219 12.546875 208.660156 12.320312 208.632812 12.09375 C 208.585938 11.742188 208.554688 11.382812 208.519531 11.03125 C 208.5 10.828125 208.492188 10.625 208.488281 10.421875 C 208.484375 10.101562 208.492188 9.777344 208.492188 9.457031 C 208.492188 8.496094 208.71875 6.609375 209.449219 5.332031 C 209.878906 4.578125 210.496094 4.039062 211.410156 4.21875 C 211.753906 4.289062 211.929688 4.539062 212.027344 4.828125 C 212.15625 5.214844 212.15625 5.671875 212.136719 6.046875 C 212.097656 6.792969 211.839844 7.515625 211.5 8.21875 C 210.960938 9.339844 210.207031 10.40625 209.667969 11.40625 L 208.90625 12.78125 Z M 208.804688 12.953125 " fill-opacity="1" fill-rule="evenodd"/></g><g clip-path="url(#734b14284d)"><path fill="#f1ebdb" d="M 226.636719 24.75 C 226.574219 24.839844 226.214844 24.6875 226.136719 24.664062 C 225.59375 24.476562 225.042969 24.265625 224.53125 24.023438 C 224.09375 23.816406 223.5625 23.679688 223.15625 23.425781 C 221.925781 22.660156 220.140625 20.070312 221.851562 19.0625 C 223.289062 18.214844 224.847656 20.5625 225.367188 21.367188 C 225.574219 21.6875 225.734375 21.984375 225.855469 22.335938 C 226.03125 22.828125 226.230469 23.324219 226.414062 23.816406 C 226.472656 23.972656 226.597656 24.128906 226.625 24.292969 C 226.636719 24.378906 226.675781 24.617188 226.71875 24.539062 C 226.753906 24.476562 226.617188 24.113281 226.601562 24.042969 C 226.5 23.628906 226.457031 23.191406 226.414062 22.769531 C 226.375 22.386719 226.390625 22 226.390625 21.613281 C 226.390625 20.386719 226.964844 17.167969 229.183594 17.558594 C 230.039062 17.710938 230.109375 18.59375 230.070312 19.207031 C 229.980469 20.628906 228.777344 21.957031 228.042969 23.160156 C 227.84375 23.488281 227.625 23.796875 227.441406 24.128906 C 227.347656 24.289062 227.226562 24.441406 227.136719 24.601562 C 227.113281 24.640625 227.042969 24.703125 227.042969 24.703125 C 227.042969 24.703125 227.082031 24.617188 227.113281 24.578125 C 227.261719 24.40625 227.375 24.179688 227.578125 24.042969 C 228.050781 23.730469 228.535156 23.375 229.023438 23.054688 C 229.363281 22.835938 229.71875 22.667969 230.09375 22.5 C 231.417969 21.914062 234.679688 20.855469 235.238281 22.828125 C 235.414062 23.449219 234.886719 23.886719 234.421875 24.269531 C 233.039062 25.417969 230.941406 25.191406 229.207031 25.074219 C 228.660156 25.035156 228.039062 25.089844 227.507812 24.972656 C 227.289062 24.921875 227.035156 24.96875 226.8125 24.929688 C 226.785156 24.925781 226.742188 24.910156 226.742188 24.910156 L 226.859375 24.910156 C 227.046875 24.910156 227.285156 24.988281 227.460938 25.03125 C 227.835938 25.125 228.242188 25.238281 228.582031 25.402344 C 229.882812 26.042969 232.730469 26.640625 232.445312 28.410156 C 232.207031 29.871094 230.382812 30.015625 229.230469 29.335938 C 228.179688 28.714844 226.554688 26.210938 226.554688 24.992188 C 226.554688 24.929688 226.542969 25.117188 226.554688 25.175781 C 226.582031 25.316406 226.613281 25.46875 226.648438 25.609375 C 226.757812 26.054688 226.851562 26.492188 226.902344 26.949219 C 227.039062 28.132812 226.992188 29.667969 225.972656 30.570312 C 225.617188 30.886719 225.117188 31.324219 224.554688 31.1875 C 223.988281 31.054688 223.765625 30.402344 223.738281 29.953125 C 223.648438 28.554688 224.53125 27.601562 225.320312 26.453125 C 225.566406 26.097656 225.863281 25.78125 226.113281 25.425781 C 226.140625 25.382812 226.347656 24.992188 226.460938 24.992188 C 226.570312 24.992188 226.332031 25.148438 226.253906 25.21875 C 226.125 25.332031 225.984375 25.433594 225.855469 25.546875 C 225.492188 25.871094 225.089844 26.105469 224.667969 26.371094 C 223.609375 27.042969 221.957031 27.609375 220.640625 27.320312 C 220.117188 27.203125 219.5 26.992188 219.269531 26.515625 C 218.769531 25.476562 219.570312 24.804688 220.503906 24.332031 C 221.988281 23.582031 224.992188 24.75 226.636719 24.75 Z M 226.636719 24.75 " fill-opacity="1" fill-rule="evenodd"/></g><g clip-path="url(#8c752f5293)"><path fill="#f1ebdb" d="M 225.917969 21.324219 C 225.875 21.25 225.828125 21.175781 225.78125 21.101562 C 225.390625 20.496094 224.445312 19.105469 223.394531 18.601562 C 222.8125 18.324219 222.195312 18.28125 221.597656 18.636719 C 220.652344 19.191406 220.484375 20.105469 220.765625 21.066406 C 221.082031 22.128906 222 23.246094 222.769531 23.777344 C 222.632812 23.757812 222.496094 23.746094 222.363281 23.734375 C 221.582031 23.671875 220.871094 23.730469 220.332031 24.003906 C 219.699219 24.320312 219.132812 24.738281 218.882812 25.261719 C 218.695312 25.664062 218.667969 26.132812 218.929688 26.675781 C 219.054688 26.941406 219.261719 27.144531 219.519531 27.304688 C 219.828125 27.492188 220.210938 27.609375 220.558594 27.6875 C 221.269531 27.84375 222.066406 27.777344 222.835938 27.578125 C 223.441406 27.417969 224.023438 27.175781 224.519531 26.902344 C 224.199219 27.355469 223.894531 27.796875 223.679688 28.265625 C 223.4375 28.785156 223.300781 29.339844 223.339844 29.980469 C 223.363281 30.320312 223.476562 30.75 223.71875 31.074219 C 223.898438 31.316406 224.144531 31.5 224.457031 31.574219 C 224.769531 31.652344 225.066406 31.609375 225.339844 31.492188 C 225.683594 31.351562 225.996094 31.089844 226.242188 30.871094 C 226.703125 30.460938 226.996094 29.941406 227.164062 29.375 C 227.300781 28.914062 227.359375 28.421875 227.363281 27.941406 C 227.898438 28.722656 228.523438 29.402344 229.019531 29.695312 C 229.804688 30.160156 230.871094 30.285156 231.664062 29.964844 C 232.273438 29.722656 232.738281 29.242188 232.863281 28.476562 C 232.984375 27.746094 232.695312 27.167969 232.171875 26.695312 C 231.648438 26.222656 230.851562 25.871094 230.101562 25.574219 C 230.902344 25.621094 231.734375 25.644531 232.515625 25.523438 C 233.328125 25.402344 234.082031 25.128906 234.710938 24.613281 C 235.023438 24.351562 235.359375 24.058594 235.542969 23.722656 C 235.710938 23.421875 235.777344 23.089844 235.671875 22.710938 C 235.378906 21.667969 234.507812 21.261719 233.445312 21.238281 C 232.214844 21.210938 230.71875 21.726562 229.90625 22.085938 C 229.671875 22.1875 229.445312 22.292969 229.222656 22.410156 C 229.15625 22.445312 229.089844 22.480469 229.023438 22.519531 C 229.425781 21.933594 229.851562 21.324219 230.140625 20.691406 C 230.363281 20.21875 230.507812 19.730469 230.542969 19.234375 C 230.570312 18.769531 230.527344 18.183594 230.261719 17.753906 C 230.0625 17.429688 229.753906 17.179688 229.269531 17.09375 C 228.183594 16.898438 227.40625 17.386719 226.871094 18.160156 C 226.230469 19.085938 225.96875 20.460938 225.917969 21.324219 Z M 226.28125 25.84375 C 226.324219 26.011719 226.363281 26.183594 226.394531 26.355469 C 226.4375 26.566406 226.472656 26.777344 226.5 26.992188 C 226.574219 27.660156 226.59375 28.445312 226.386719 29.148438 C 226.261719 29.570312 226.050781 29.964844 225.707031 30.273438 C 225.542969 30.414062 225.355469 30.589844 225.136719 30.707031 C 224.988281 30.789062 224.824219 30.84375 224.648438 30.800781 C 224.484375 30.765625 224.378906 30.644531 224.300781 30.511719 C 224.195312 30.324219 224.148438 30.105469 224.136719 29.929688 C 224.105469 29.433594 224.214844 29 224.398438 28.59375 C 224.699219 27.929688 225.191406 27.335938 225.644531 26.671875 Z M 227.019531 25.375 L 227.359375 25.453125 C 227.566406 25.503906 227.789062 25.5625 228.003906 25.632812 C 228.136719 25.679688 228.269531 25.730469 228.386719 25.789062 C 229.125 26.148438 230.363281 26.492188 231.234375 27.050781 C 231.734375 27.375 232.117188 27.765625 232.023438 28.34375 C 231.9375 28.894531 231.53125 29.183594 231.050781 29.273438 C 230.527344 29.371094 229.917969 29.257812 229.445312 28.976562 C 228.960938 28.691406 228.355469 27.964844 227.855469 27.179688 C 227.480469 26.582031 227.160156 25.949219 227.03125 25.433594 Z M 225.601562 25.011719 L 225.761719 25.070312 L 225.804688 25.085938 L 225.597656 25.257812 C 225.464844 25.378906 225.324219 25.484375 225.179688 25.585938 C 224.949219 25.746094 224.707031 25.890625 224.460938 26.046875 C 223.957031 26.367188 223.3125 26.660156 222.636719 26.839844 C 221.992188 27.011719 221.320312 27.082031 220.726562 26.949219 C 220.496094 26.898438 220.25 26.832031 220.03125 26.722656 C 219.851562 26.636719 219.691406 26.523438 219.609375 26.355469 C 219.425781 25.972656 219.480469 25.660156 219.671875 25.402344 C 219.898438 25.101562 220.273438 24.867188 220.671875 24.664062 C 221.101562 24.445312 221.675781 24.421875 222.304688 24.46875 C 223.375 24.550781 224.589844 24.855469 225.601562 25.011719 Z M 227.707031 24.566406 L 227.734375 24.523438 C 227.765625 24.488281 227.796875 24.453125 227.835938 24.425781 C 227.835938 24.425781 229.273438 23.4375 229.273438 23.4375 C 229.429688 23.335938 229.589844 23.246094 229.753906 23.164062 C 229.925781 23.074219 230.101562 22.996094 230.277344 22.914062 C 231 22.59375 232.332031 22.117188 233.429688 22.136719 C 234.066406 22.148438 234.628906 22.328125 234.804688 22.949219 C 234.855469 23.121094 234.789062 23.265625 234.695312 23.394531 C 234.546875 23.59375 234.335938 23.765625 234.136719 23.929688 C 233.636719 24.347656 233.027344 24.554688 232.382812 24.652344 C 231.355469 24.8125 230.234375 24.707031 229.238281 24.640625 C 228.859375 24.613281 228.441406 24.632812 228.046875 24.605469 C 227.929688 24.597656 227.816406 24.585938 227.707031 24.566406 Z M 226 24.074219 C 225.835938 24.019531 225.671875 23.957031 225.511719 23.894531 C 225.253906 23.792969 224.996094 23.683594 224.75 23.566406 C 224.4375 23.421875 224.085938 23.308594 223.757812 23.167969 C 223.640625 23.117188 223.527344 23.0625 223.425781 23 C 222.792969 22.605469 221.996094 21.671875 221.730469 20.78125 C 221.582031 20.277344 221.613281 19.78125 222.109375 19.488281 C 222.507812 19.253906 222.910156 19.421875 223.285156 19.6875 C 224.035156 20.21875 224.664062 21.183594 224.953125 21.632812 C 225.046875 21.777344 225.128906 21.914062 225.203125 22.058594 C 225.273438 22.199219 225.339844 22.34375 225.394531 22.496094 C 225.394531 22.496094 225.957031 23.988281 225.957031 23.988281 Z M 227.058594 23.863281 C 227.03125 23.734375 227.007812 23.601562 226.984375 23.46875 C 226.949219 23.21875 226.921875 22.964844 226.898438 22.71875 C 226.882812 22.578125 226.875 22.441406 226.875 22.300781 C 226.871094 22.070312 226.875 21.84375 226.875 21.613281 C 226.875 20.933594 227.054688 19.574219 227.660156 18.695312 C 227.984375 18.226562 228.445312 17.910156 229.101562 18.023438 C 229.324219 18.0625 229.445312 18.195312 229.511719 18.359375 C 229.613281 18.617188 229.613281 18.925781 229.597656 19.175781 C 229.566406 19.691406 229.363281 20.1875 229.097656 20.675781 C 228.667969 21.460938 228.074219 22.214844 227.644531 22.917969 Z M 227.058594 23.863281 " fill-opacity="1" fill-rule="evenodd"/></g><path fill="#dfaf36" d="M 209.894531 13.328125 C 209.894531 13.550781 209.855469 13.761719 209.777344 13.96875 C 209.699219 14.171875 209.585938 14.351562 209.441406 14.511719 C 209.296875 14.667969 209.128906 14.789062 208.9375 14.871094 C 208.746094 14.957031 208.550781 15 208.34375 15 C 208.140625 15 207.941406 14.957031 207.753906 14.871094 C 207.5625 14.789062 207.394531 14.667969 207.25 14.511719 C 207.105469 14.351562 206.992188 14.171875 206.914062 13.96875 C 206.835938 13.761719 206.796875 13.550781 206.796875 13.328125 C 206.796875 13.105469 206.835938 12.894531 206.914062 12.6875 C 206.992188 12.484375 207.105469 12.300781 207.25 12.144531 C 207.394531 11.988281 207.5625 11.867188 207.753906 11.785156 C 207.941406 11.699219 208.140625 11.65625 208.34375 11.65625 C 208.550781 11.65625 208.746094 11.699219 208.9375 11.785156 C 209.128906 11.867188 209.296875 11.988281 209.441406 12.144531 C 209.585938 12.300781 209.699219 12.484375 209.777344 12.6875 C 209.855469 12.894531 209.894531 13.105469 209.894531 13.328125 Z M 209.894531 13.328125 " fill-opacity="1" fill-rule="nonzero"/><path fill="#dfaf36" d="M 208.34375 11.292969 C 207.796875 11.285156 207.296875 11.527344 206.941406 11.917969 C 206.609375 12.28125 206.402344 12.777344 206.394531 13.328125 C 206.386719 13.882812 206.589844 14.386719 206.914062 14.761719 C 207.269531 15.175781 207.78125 15.425781 208.34375 15.4375 C 208.914062 15.445312 209.433594 15.191406 209.804688 14.785156 C 210.148438 14.410156 210.359375 13.894531 210.371094 13.328125 C 210.378906 12.753906 210.167969 12.234375 209.832031 11.847656 C 209.460938 11.417969 208.929688 11.15625 208.34375 11.148438 Z M 208.34375 12.164062 C 208.636719 12.160156 208.902344 12.289062 209.09375 12.496094 C 209.289062 12.710938 209.414062 13.003906 209.417969 13.328125 C 209.421875 13.65625 209.3125 13.960938 209.121094 14.183594 C 208.925781 14.410156 208.652344 14.558594 208.34375 14.5625 C 208.03125 14.566406 207.746094 14.433594 207.542969 14.207031 C 207.335938 13.980469 207.203125 13.671875 207.199219 13.328125 C 207.191406 12.980469 207.3125 12.660156 207.515625 12.421875 C 207.722656 12.183594 208.015625 12.023438 208.34375 12.019531 Z M 208.34375 12.164062 " fill-opacity="1" fill-rule="evenodd"/><path fill="#dfaf36" d="M 227.898438 24.371094 C 227.898438 24.527344 227.867188 24.679688 227.804688 24.824219 C 227.742188 24.972656 227.652344 25.101562 227.535156 25.210938 C 227.421875 25.324219 227.285156 25.410156 227.132812 25.46875 C 226.984375 25.53125 226.824219 25.558594 226.660156 25.558594 C 226.496094 25.558594 226.339844 25.53125 226.1875 25.46875 C 226.035156 25.410156 225.902344 25.324219 225.785156 25.210938 C 225.667969 25.101562 225.578125 24.972656 225.515625 24.824219 C 225.453125 24.679688 225.421875 24.527344 225.421875 24.371094 C 225.421875 24.210938 225.453125 24.0625 225.515625 23.914062 C 225.578125 23.769531 225.667969 23.640625 225.785156 23.527344 C 225.902344 23.417969 226.035156 23.332031 226.1875 23.269531 C 226.339844 23.210938 226.496094 23.179688 226.660156 23.179688 C 226.824219 23.179688 226.984375 23.210938 227.132812 23.269531 C 227.285156 23.332031 227.421875 23.417969 227.535156 23.527344 C 227.652344 23.640625 227.742188 23.769531 227.804688 23.914062 C 227.867188 24.0625 227.898438 24.210938 227.898438 24.371094 Z M 227.898438 24.371094 " fill-opacity="1" fill-rule="nonzero"/><path fill="#dfaf36" d="M 226.660156 22.816406 C 226.222656 22.808594 225.824219 22.976562 225.527344 23.246094 C 225.21875 23.527344 225.03125 23.929688 225.019531 24.371094 C 225.011719 24.816406 225.199219 25.222656 225.503906 25.519531 C 225.796875 25.808594 226.207031 25.988281 226.660156 25.996094 C 227.121094 26.003906 227.535156 25.828125 227.84375 25.546875 C 228.167969 25.253906 228.367188 24.832031 228.375 24.371094 C 228.382812 23.902344 228.1875 23.476562 227.871094 23.167969 C 227.5625 22.863281 227.132812 22.679688 226.660156 22.671875 Z M 226.660156 23.691406 C 226.863281 23.6875 227.050781 23.753906 227.1875 23.878906 C 227.324219 24.003906 227.417969 24.175781 227.421875 24.371094 C 227.425781 24.570312 227.347656 24.757812 227.214844 24.890625 C 227.074219 25.027344 226.878906 25.121094 226.660156 25.125 C 226.4375 25.128906 226.230469 25.050781 226.082031 24.917969 C 225.929688 24.777344 225.828125 24.585938 225.824219 24.371094 C 225.820312 24.148438 225.90625 23.945312 226.058594 23.796875 C 226.210938 23.648438 226.421875 23.546875 226.660156 23.542969 Z M 226.660156 23.691406 " fill-opacity="1" fill-rule="evenodd"/><path fill="#ffc7c7" d="M 18.191406 214.347656 C 23.390625 205.347656 9.523438 205.347656 14.726562 214.347656 C 9.523438 205.347656 2.589844 217.347656 12.992188 217.347656 C 2.589844 217.347656 9.523438 229.34375 14.726562 220.347656 C 9.523438 229.34375 23.390625 229.34375 18.191406 220.347656 C 23.390625 229.34375 30.328125 217.347656 19.925781 217.347656 C 30.328125 217.347656 23.390625 205.347656 18.191406 214.347656 Z M 18.191406 214.347656 " fill-opacity="1" fill-rule="nonzero"/><path fill="#ff8888" d="M 18.984375 217.347656 C 18.984375 217.679688 18.917969 218.003906 18.789062 218.3125 C 18.664062 218.621094 18.480469 218.894531 18.242188 219.128906 C 18.007812 219.367188 17.734375 219.546875 17.425781 219.675781 C 17.113281 219.804688 16.792969 219.867188 16.457031 219.867188 C 16.125 219.867188 15.800781 219.804688 15.492188 219.675781 C 15.183594 219.546875 14.910156 219.367188 14.671875 219.128906 C 14.4375 218.894531 14.253906 218.621094 14.125 218.3125 C 14 218.003906 13.933594 217.679688 13.933594 217.347656 C 13.933594 217.011719 14 216.691406 14.125 216.382812 C 14.253906 216.070312 14.4375 215.800781 14.671875 215.5625 C 14.910156 215.328125 15.183594 215.144531 15.492188 215.015625 C 15.800781 214.886719 16.125 214.824219 16.457031 214.824219 C 16.792969 214.824219 17.113281 214.886719 17.425781 215.015625 C 17.734375 215.144531 18.007812 215.328125 18.242188 215.5625 C 18.480469 215.800781 18.664062 216.070312 18.789062 216.382812 C 18.917969 216.691406 18.984375 217.011719 18.984375 217.347656 Z M 18.984375 217.347656 " fill-opacity="1" fill-rule="nonzero"/></svg>