<svg xmlns="http://www.w3.org/2000/svg" xmlns:xlink="http://www.w3.org/1999/xlink" width="156" zoomAndPan="magnify" viewBox="0 0 116.88 37.5" height="50" preserveAspectRatio="xMidYMid meet" version="1.0"><defs><filter x="0%" y="0%" width="100%" height="100%" id="95c74d30fd"><feColorMatrix values="0 0 0 0 1 0 0 0 0 1 0 0 0 0 1 0 0 0 1 0" color-interpolation-filters="sRGB"/></filter><mask id="a1003cd9ff"><g filter="url(#95c74d30fd)"><rect x="-11.688" width="140.256" fill="#000000" y="-3.75" height="45" fill-opacity="0.109"/></g></mask><clipPath id="16987b058d"><path d="M 0.65625 0.421875 L 1.839844 0.421875 L 1.839844 1.84375 L 0.65625 1.84375 Z M 0.65625 0.421875 " clip-rule="nonzero"/></clipPath><clipPath id="10fac88e50"><rect x="0" width="2" y="0" height="2"/></clipPath><mask id="2fe17af157"><g filter="url(#95c74d30fd)"><rect x="-11.688" width="140.256" fill="#000000" y="-3.75" height="45" fill-opacity="0.109"/></g></mask><clipPath id="068b4a5d5c"><path d="M 0.65625 0.421875 L 1.839844 0.421875 L 1.839844 1.367188 L 0.65625 1.367188 Z M 0.65625 0.421875 " clip-rule="nonzero"/></clipPath><clipPath id="d0f8f28d65"><rect x="0" width="2" y="0" height="2"/></clipPath><mask id="1fe9aedb4a"><g filter="url(#95c74d30fd)"><rect x="-11.688" width="140.256" fill="#000000" y="-3.75" height="45" fill-opacity="0.109"/></g></mask><clipPath id="a5d8c8c1c6"><path d="M 0.421875 0.65625 L 1.605469 0.65625 L 1.605469 1.84375 L 0.421875 1.84375 Z M 0.421875 0.65625 " clip-rule="nonzero"/></clipPath><clipPath id="2ba0d19586"><rect x="0" width="2" y="0" height="2"/></clipPath><mask id="ff9ba599dd"><g filter="url(#95c74d30fd)"><rect x="-11.688" width="140.256" fill="#000000" y="-3.75" height="45" fill-opacity="0.109"/></g></mask><clipPath id="fed36aa4e7"><path d="M 0.421875 0.132812 L 1.839844 0.132812 L 1.839844 1 L 0.421875 1 Z M 0.421875 0.132812 " clip-rule="nonzero"/></clipPath><clipPath id="9c2c4dab50"><rect x="0" width="2" y="0" height="2"/></clipPath><mask id="48a2e363e4"><g filter="url(#95c74d30fd)"><rect x="-11.688" width="140.256" fill="#000000" y="-3.75" height="45" fill-opacity="0.109"/></g></mask><clipPath id="93fbfc2dd7"><path d="M 1 0.421875 L 1.839844 0.421875 L 1.839844 1.367188 L 1 1.367188 Z M 1 0.421875 " clip-rule="nonzero"/></clipPath><clipPath id="5e510d43d4"><rect x="0" width="2" y="0" height="2"/></clipPath><mask id="440da90cfd"><g filter="url(#95c74d30fd)"><rect x="-11.688" width="140.256" fill="#000000" y="-3.75" height="45" fill-opacity="0.109"/></g></mask><clipPath id="c4be1e23c0"><path d="M 1 0.421875 L 1.839844 0.421875 L 1.839844 1.367188 L 1 1.367188 Z M 1 0.421875 " clip-rule="nonzero"/></clipPath><clipPath id="0ba905d05b"><rect x="0" width="2" y="0" height="2"/></clipPath><mask id="0ce5f3e007"><g filter="url(#95c74d30fd)"><rect x="-11.688" width="140.256" fill="#000000" y="-3.75" height="45" fill-opacity="0.109"/></g></mask><clipPath id="e34df49e85"><path d="M 0.128906 0.421875 L 0.839844 0.421875 L 0.839844 1.367188 L 0.128906 1.367188 Z M 0.128906 0.421875 " clip-rule="nonzero"/></clipPath><clipPath id="1e6ad199ce"><rect x="0" width="1" y="0" height="2"/></clipPath><mask id="5b0159b4a4"><g filter="url(#95c74d30fd)"><rect x="-11.688" width="140.256" fill="#000000" y="-3.75" height="45" fill-opacity="0.109"/></g></mask><clipPath id="1c4a9b9ebf"><path d="M 0.421875 0.421875 L 1.839844 0.421875 L 1.839844 1.84375 L 0.421875 1.84375 Z M 0.421875 0.421875 " clip-rule="nonzero"/></clipPath><clipPath id="e75d48b948"><rect x="0" width="2" y="0" height="2"/></clipPath><mask id="c6975d7c3d"><g filter="url(#95c74d30fd)"><rect x="-11.688" width="140.256" fill="#000000" y="-3.75" height="45" fill-opacity="0.109"/></g></mask><clipPath id="4d6a726b9e"><path d="M 0.65625 0.421875 L 1.605469 0.421875 L 1.605469 1.367188 L 0.65625 1.367188 Z M 0.65625 0.421875 " clip-rule="nonzero"/></clipPath><clipPath id="6080945f62"><rect x="0" width="2" y="0" height="2"/></clipPath><mask id="9c28f076f0"><g filter="url(#95c74d30fd)"><rect x="-11.688" width="140.256" fill="#000000" y="-3.75" height="45" fill-opacity="0.109"/></g></mask><clipPath id="46a8b390b8"><path d="M 0.128906 0.421875 L 0.839844 0.421875 L 0.839844 1.132812 L 0.128906 1.132812 Z M 0.128906 0.421875 " clip-rule="nonzero"/></clipPath><clipPath id="663adffaaf"><rect x="0" width="1" y="0" height="2"/></clipPath><mask id="c96cd85529"><g filter="url(#95c74d30fd)"><rect x="-11.688" width="140.256" fill="#000000" y="-3.75" height="45" fill-opacity="0.109"/></g></mask><clipPath id="91937045bc"><path d="M 0.183594 1 L 1.839844 1 L 1.839844 2 L 0.183594 2 Z M 0.183594 1 " clip-rule="nonzero"/></clipPath><clipPath id="36c3c36797"><rect x="0" width="2" y="0" height="3"/></clipPath><mask id="293e8a1822"><g filter="url(#95c74d30fd)"><rect x="-11.688" width="140.256" fill="#000000" y="-3.75" height="45" fill-opacity="0.109"/></g></mask><clipPath id="17bdeb9059"><path d="M 0.421875 0.421875 L 1.839844 0.421875 L 1.839844 1.84375 L 0.421875 1.84375 Z M 0.421875 0.421875 " clip-rule="nonzero"/></clipPath><clipPath id="1d3e65af51"><rect x="0" width="2" y="0" height="2"/></clipPath><mask id="c6c8c37a02"><g filter="url(#95c74d30fd)"><rect x="-11.688" width="140.256" fill="#000000" y="-3.75" height="45" fill-opacity="0.109"/></g></mask><clipPath id="b6b9ea4a40"><path d="M 0.65625 0.421875 L 1.839844 0.421875 L 1.839844 1.84375 L 0.65625 1.84375 Z M 0.65625 0.421875 " clip-rule="nonzero"/></clipPath><clipPath id="9ad8e994ad"><rect x="0" width="2" y="0" height="2"/></clipPath><mask id="a6f58eac35"><g filter="url(#95c74d30fd)"><rect x="-11.688" width="140.256" fill="#000000" y="-3.75" height="45" fill-opacity="0.109"/></g></mask><clipPath id="767016ff62"><path d="M 0.65625 0.421875 L 1.839844 0.421875 L 1.839844 1.367188 L 0.65625 1.367188 Z M 0.65625 0.421875 " clip-rule="nonzero"/></clipPath><clipPath id="e950cf644a"><rect x="0" width="2" y="0" height="2"/></clipPath><mask id="70e7170bf2"><g filter="url(#95c74d30fd)"><rect x="-11.688" width="140.256" fill="#000000" y="-3.75" height="45" fill-opacity="0.109"/></g></mask><clipPath id="a77b659420"><path d="M 0.421875 0.65625 L 1.605469 0.65625 L 1.605469 1.84375 L 0.421875 1.84375 Z M 0.421875 0.65625 " clip-rule="nonzero"/></clipPath><clipPath id="773037c107"><rect x="0" width="2" y="0" height="2"/></clipPath><mask id="29cb39e498"><g filter="url(#95c74d30fd)"><rect x="-11.688" width="140.256" fill="#000000" y="-3.75" height="45" fill-opacity="0.109"/></g></mask><clipPath id="2fd9fd4796"><path d="M 0.421875 0.132812 L 1.839844 0.132812 L 1.839844 1 L 0.421875 1 Z M 0.421875 0.132812 " clip-rule="nonzero"/></clipPath><clipPath id="11cd272b72"><rect x="0" width="2" y="0" height="2"/></clipPath><mask id="87b00dba78"><g filter="url(#95c74d30fd)"><rect x="-11.688" width="140.256" fill="#000000" y="-3.75" height="45" fill-opacity="0.109"/></g></mask><clipPath id="56ae37818f"><path d="M 1 0.421875 L 1.839844 0.421875 L 1.839844 1.367188 L 1 1.367188 Z M 1 0.421875 " clip-rule="nonzero"/></clipPath><clipPath id="3910d31e0f"><rect x="0" width="2" y="0" height="2"/></clipPath><mask id="5ef18032be"><g filter="url(#95c74d30fd)"><rect x="-11.688" width="140.256" fill="#000000" y="-3.75" height="45" fill-opacity="0.109"/></g></mask><clipPath id="7f603711e4"><path d="M 1 0.421875 L 1.839844 0.421875 L 1.839844 1.367188 L 1 1.367188 Z M 1 0.421875 " clip-rule="nonzero"/></clipPath><clipPath id="16b7563bd6"><rect x="0" width="2" y="0" height="2"/></clipPath><mask id="152dd8c701"><g filter="url(#95c74d30fd)"><rect x="-11.688" width="140.256" fill="#000000" y="-3.75" height="45" fill-opacity="0.109"/></g></mask><clipPath id="a950fcb6ae"><path d="M 0.128906 0.421875 L 0.839844 0.421875 L 0.839844 1.367188 L 0.128906 1.367188 Z M 0.128906 0.421875 " clip-rule="nonzero"/></clipPath><clipPath id="97b0830541"><rect x="0" width="1" y="0" height="2"/></clipPath><mask id="e4451bec3d"><g filter="url(#95c74d30fd)"><rect x="-11.688" width="140.256" fill="#000000" y="-3.75" height="45" fill-opacity="0.109"/></g></mask><clipPath id="60656897c3"><path d="M 0.421875 0.421875 L 1.839844 0.421875 L 1.839844 1.84375 L 0.421875 1.84375 Z M 0.421875 0.421875 " clip-rule="nonzero"/></clipPath><clipPath id="3e3c341b48"><rect x="0" width="2" y="0" height="2"/></clipPath><mask id="6ab3c770c0"><g filter="url(#95c74d30fd)"><rect x="-11.688" width="140.256" fill="#000000" y="-3.75" height="45" fill-opacity="0.109"/></g></mask><clipPath id="cb02a93986"><path d="M 0.65625 0.421875 L 1.605469 0.421875 L 1.605469 1.367188 L 0.65625 1.367188 Z M 0.65625 0.421875 " clip-rule="nonzero"/></clipPath><clipPath id="973404dca0"><rect x="0" width="2" y="0" height="2"/></clipPath><mask id="8cfd43367f"><g filter="url(#95c74d30fd)"><rect x="-11.688" width="140.256" fill="#000000" y="-3.75" height="45" fill-opacity="0.109"/></g></mask><clipPath id="ffc224a740"><path d="M 0.128906 0.421875 L 0.839844 0.421875 L 0.839844 1.132812 L 0.128906 1.132812 Z M 0.128906 0.421875 " clip-rule="nonzero"/></clipPath><clipPath id="17e8c2437a"><rect x="0" width="1" y="0" height="2"/></clipPath><mask id="674192eab4"><g filter="url(#95c74d30fd)"><rect x="-11.688" width="140.256" fill="#000000" y="-3.75" height="45" fill-opacity="0.109"/></g></mask><clipPath id="218b40d894"><path d="M 0.183594 1 L 1.839844 1 L 1.839844 2 L 0.183594 2 Z M 0.183594 1 " clip-rule="nonzero"/></clipPath><clipPath id="c3b5896eb7"><rect x="0" width="2" y="0" height="3"/></clipPath><mask id="83f252a6ac"><g filter="url(#95c74d30fd)"><rect x="-11.688" width="140.256" fill="#000000" y="-3.75" height="45" fill-opacity="0.109"/></g></mask><clipPath id="9afc9c7ec9"><path d="M 0.421875 0.421875 L 1.839844 0.421875 L 1.839844 1.84375 L 0.421875 1.84375 Z M 0.421875 0.421875 " clip-rule="nonzero"/></clipPath><clipPath id="ec80f0c355"><rect x="0" width="2" y="0" height="2"/></clipPath><clipPath id="df7012c4c6"><path d="M 0.710938 0 L 110 0 L 110 37.007812 L 0.710938 37.007812 Z M 0.710938 0 " clip-rule="nonzero"/></clipPath><clipPath id="c04522d778"><path d="M 107.265625 13.507812 L 115.148438 13.507812 L 115.148438 19.296875 L 107.265625 19.296875 Z M 107.265625 13.507812 " clip-rule="nonzero"/></clipPath><clipPath id="4230f1a2a3"><path d="M 109.214844 14.359375 C 111.285156 16.0625 113.285156 14.800781 114.097656 15.023438 C 114.542969 15.171875 115.058594 15.617188 115.058594 15.988281 C 115.132812 16.503906 114.171875 17.542969 113.433594 17.910156 C 112.46875 18.355469 110.621094 18.578125 109.804688 18.132812 C 109.140625 17.761719 108.472656 16.503906 108.695312 16.0625 C 108.84375 15.691406 110.101562 15.320312 110.546875 15.46875 C 110.839844 15.617188 110.765625 16.355469 111.0625 16.503906 C 111.65625 16.726562 113.503906 15.097656 114.246094 15.320312 C 114.691406 15.394531 115.132812 16.0625 115.132812 16.503906 C 115.132812 16.875 114.691406 17.613281 114.320312 17.761719 C 114.023438 17.910156 113.359375 17.835938 113.0625 17.613281 C 112.765625 17.46875 112.46875 16.875 112.46875 16.578125 C 112.46875 16.207031 112.765625 15.691406 113.0625 15.46875 C 113.359375 15.246094 113.949219 15.171875 114.320312 15.320312 C 114.691406 15.542969 115.132812 16.28125 115.132812 16.726562 C 115.132812 17.097656 114.765625 17.542969 114.394531 17.761719 C 114.097656 17.910156 113.503906 17.910156 113.210938 17.6875 C 112.839844 17.46875 112.46875 16.28125 112.691406 15.839844 C 112.839844 15.46875 114.171875 15.320312 114.171875 15.320312 C 114.171875 15.246094 113.285156 15.320312 113.285156 15.320312 C 113.285156 15.46875 114.691406 15.46875 114.910156 15.914062 C 115.132812 16.28125 114.910156 17.097656 114.617188 17.613281 C 114.320312 18.058594 113.875 18.429688 113.285156 18.726562 C 112.320312 19.09375 110.101562 19.539062 109.359375 19.019531 C 108.695312 18.652344 108.546875 17.394531 108.472656 16.578125 C 108.324219 15.691406 108.398438 14.433594 108.769531 13.988281 C 109.140625 13.617188 110.027344 13.394531 110.324219 13.617188 C 110.765625 13.839844 110.324219 15.46875 110.839844 15.839844 C 111.582031 16.355469 114.394531 15.023438 114.839844 15.46875 C 115.132812 15.839844 114.984375 16.875 114.542969 17.320312 C 113.875 17.984375 111.0625 18.429688 109.804688 17.984375 C 108.695312 17.613281 107.4375 16.207031 107.289062 15.394531 C 107.214844 14.949219 107.660156 14.210938 107.953125 14.0625 C 108.25 13.914062 109.214844 14.359375 109.214844 14.359375 " clip-rule="nonzero"/></clipPath><clipPath id="100dd46ef5"><path d="M 107.878906 13.097656 L 110.105469 13.097656 L 110.105469 15.355469 L 107.878906 15.355469 Z M 107.878906 13.097656 " clip-rule="nonzero"/></clipPath><clipPath id="36135c744e"><path d="M 107.878906 14.210938 C 109.730469 13.324219 110.027344 14.730469 109.804688 15.023438 C 109.582031 15.246094 108.101562 15.023438 107.953125 14.730469 C 107.878906 14.359375 108.546875 13.175781 108.917969 13.101562 C 109.285156 13.101562 110.101562 13.839844 110.101562 14.210938 C 110.101562 14.582031 109.507812 15.320312 109.140625 15.320312 C 108.769531 15.394531 107.878906 14.210938 107.878906 14.210938 " clip-rule="nonzero"/></clipPath><clipPath id="13d94f0bdb"><path d="M 113.203125 16.214844 L 115.378906 16.214844 L 115.378906 18.023438 L 113.203125 18.023438 Z M 113.203125 16.214844 " clip-rule="nonzero"/></clipPath><clipPath id="6173e14116"><path d="M 115.355469 16.875 C 114.394531 18.355469 113.503906 18.058594 113.285156 17.761719 C 113.136719 17.46875 113.285156 16.578125 113.578125 16.355469 C 113.875 16.0625 115.058594 16.429688 115.058594 16.429688 " clip-rule="nonzero"/></clipPath><clipPath id="684393800d"><path d="M 113.394531 16.140625 L 115.511719 16.140625 L 115.511719 17.949219 L 113.394531 17.949219 Z M 113.394531 16.140625 " clip-rule="nonzero"/></clipPath><clipPath id="2c7c803cff"><path d="M 115.503906 16.800781 C 114.617188 18.28125 113.726562 17.984375 113.503906 17.6875 C 113.285156 17.394531 113.503906 16.503906 113.800781 16.28125 C 114.097656 15.988281 115.207031 16.355469 115.207031 16.355469 " clip-rule="nonzero"/></clipPath></defs><g mask="url(#a1003cd9ff)"><g transform="matrix(1, 0, 0, 1, 109, 1)"><g clip-path="url(#10fac88e50)"><g clip-path="url(#16987b058d)"><path fill="#ffa4b4" d="M 1.578125 1.46875 C 1.578125 1.46875 1.285156 1.078125 1.285156 1.078125 C 1.246094 1.03125 1.042969 0.722656 0.949219 0.722656 C 0.953125 0.722656 1.246094 1.113281 1.246094 1.113281 C 1.28125 1.160156 1.488281 1.46875 1.578125 1.46875 Z M 1.578125 1.46875 " fill-opacity="1" fill-rule="nonzero"/></g></g></g></g><g mask="url(#2fe17af157)"><g transform="matrix(1, 0, 0, 1, 109, 1)"><g clip-path="url(#d0f8f28d65)"><g clip-path="url(#068b4a5d5c)"><path fill="#ffa4b4" d="M 1.453125 1.277344 C 1.457031 1.277344 1.203125 0.921875 1.207031 0.925781 C 1.171875 0.882812 1 0.605469 0.914062 0.605469 C 0.910156 0.605469 1.167969 0.960938 1.164062 0.957031 C 1.199219 1 1.371094 1.277344 1.453125 1.277344 Z M 1.453125 1.277344 " fill-opacity="1" fill-rule="nonzero"/></g></g></g></g><g mask="url(#1fe9aedb4a)"><g transform="matrix(1, 0, 0, 1, 109, 1)"><g clip-path="url(#2ba0d19586)"><g clip-path="url(#a5d8c8c1c6)"><path fill="#ffa4b4" d="M 1.363281 1.554688 C 1.339844 1.554688 1.03125 1.257812 1.015625 1.25 C 0.949219 1.191406 0.75 0.984375 0.640625 0.984375 C 0.660156 0.984375 0.972656 1.28125 0.984375 1.289062 C 1.054688 1.347656 1.25 1.554688 1.363281 1.554688 Z M 1.363281 1.554688 " fill-opacity="1" fill-rule="nonzero"/></g></g></g></g><g mask="url(#ff9ba599dd)"><g transform="matrix(1, 0, 0, 1, 109, 2)"><g clip-path="url(#9c2c4dab50)"><g clip-path="url(#fed36aa4e7)"><path fill="#ffa4b4" d="M 1.457031 0.886719 C 1.566406 0.886719 1.21875 0.734375 1.257812 0.753906 C 1.09375 0.675781 0.8125 0.476562 0.625 0.476562 C 0.515625 0.476562 0.863281 0.632812 0.824219 0.613281 C 0.988281 0.691406 1.269531 0.886719 1.457031 0.886719 Z M 1.457031 0.886719 " fill-opacity="1" fill-rule="nonzero"/></g></g></g></g><g mask="url(#48a2e363e4)"><g transform="matrix(1, 0, 0, 1, 109, 1)"><g clip-path="url(#5e510d43d4)"><g clip-path="url(#93fbfc2dd7)"><path fill="#ffa4b4" d="M 1.585938 1.285156 C 1.597656 1.285156 1.375 0.921875 1.378906 0.929688 C 1.355469 0.894531 1.203125 0.601562 1.125 0.601562 C 1.113281 0.601562 1.339844 0.96875 1.332031 0.960938 C 1.359375 0.996094 1.511719 1.285156 1.585938 1.285156 Z M 1.585938 1.285156 " fill-opacity="1" fill-rule="nonzero"/></g></g></g></g><g mask="url(#440da90cfd)"><g transform="matrix(1, 0, 0, 1, 109, 1)"><g clip-path="url(#0ba905d05b)"><g clip-path="url(#c4be1e23c0)"><path fill="#ffa4b4" d="M 1.4375 1.144531 C 1.347656 1.144531 1.199219 0.589844 1.039062 0.589844 C 1.128906 0.589844 1.277344 1.144531 1.4375 1.144531 Z M 1.4375 1.144531 " fill-opacity="1" fill-rule="nonzero"/></g></g></g></g><g mask="url(#0ce5f3e007)"><g transform="matrix(1, 0, 0, 1, 110, 1)"><g clip-path="url(#1e6ad199ce)"><g clip-path="url(#e34df49e85)"><path fill="#ffa4b4" d="M 0.46875 1.109375 C 0.417969 1.109375 0.300781 0.671875 0.175781 0.671875 C 0.226562 0.671875 0.34375 1.109375 0.46875 1.109375 Z M 0.46875 1.109375 " fill-opacity="1" fill-rule="nonzero"/></g></g></g></g><g mask="url(#5b0159b4a4)"><g transform="matrix(1, 0, 0, 1, 109, 1)"><g clip-path="url(#e75d48b948)"><g clip-path="url(#1c4a9b9ebf)"><path fill="#ffa4b4" d="M 1.480469 1.535156 C 1.460938 1.535156 1.121094 1.15625 1.113281 1.148438 C 1.054688 1.09375 0.816406 0.804688 0.707031 0.804688 C 0.726562 0.804688 1.066406 1.179688 1.074219 1.1875 C 1.132812 1.246094 1.371094 1.535156 1.480469 1.535156 Z M 1.480469 1.535156 " fill-opacity="1" fill-rule="nonzero"/></g></g></g></g><g mask="url(#c6975d7c3d)"><g transform="matrix(1, 0, 0, 1, 109, 1)"><g clip-path="url(#6080945f62)"><g clip-path="url(#4d6a726b9e)"><path fill="#ffa4b4" d="M 1.351562 1.238281 C 1.363281 1.238281 1.144531 0.960938 1.148438 0.96875 C 1.113281 0.925781 0.980469 0.730469 0.902344 0.730469 C 0.894531 0.730469 1.109375 1.007812 1.105469 1.003906 C 1.144531 1.042969 1.273438 1.238281 1.351562 1.238281 Z M 1.351562 1.238281 " fill-opacity="1" fill-rule="nonzero"/></g></g></g></g><g mask="url(#9c28f076f0)"><g transform="matrix(1, 0, 0, 1, 110, 1)"><g clip-path="url(#663adffaaf)"><g clip-path="url(#46a8b390b8)"><path fill="#ffa4b4" d="M 0.578125 1.070312 C 0.542969 1.070312 0.445312 0.617188 0.332031 0.617188 C 0.363281 0.617188 0.464844 1.070312 0.578125 1.070312 Z M 0.578125 1.070312 " fill-opacity="1" fill-rule="nonzero"/></g></g></g></g><g mask="url(#c96cd85529)"><g transform="matrix(1, 0, 0, 1, 109, 1)"><g clip-path="url(#36c3c36797)"><g clip-path="url(#91937045bc)"><path fill="#ffa4b4" d="M 1.441406 1.738281 C 1.394531 1.738281 1.050781 1.457031 1.015625 1.4375 C 0.917969 1.375 0.695312 1.183594 0.5625 1.183594 C 0.609375 1.183594 0.953125 1.460938 0.988281 1.484375 C 1.085938 1.546875 1.308594 1.738281 1.441406 1.738281 Z M 1.441406 1.738281 " fill-opacity="1" fill-rule="nonzero"/></g></g></g></g><g mask="url(#293e8a1822)"><g transform="matrix(1, 0, 0, 1, 109, 1)"><g clip-path="url(#1d3e65af51)"><g clip-path="url(#17bdeb9059)"><path fill="#ffa4b4" d="M 1.417969 1.390625 C 1.410156 1.390625 1.109375 1.03125 1.109375 1.027344 C 1.0625 0.976562 0.855469 0.703125 0.757812 0.703125 C 0.765625 0.703125 1.066406 1.0625 1.070312 1.066406 C 1.117188 1.113281 1.320312 1.390625 1.417969 1.390625 Z M 1.417969 1.390625 " fill-opacity="1" fill-rule="nonzero"/></g></g></g></g><g mask="url(#c6c8c37a02)"><g transform="matrix(1, 0, 0, 1, 109, 1)"><g clip-path="url(#9ad8e994ad)"><g clip-path="url(#b6b9ea4a40)"><path fill="#ffa4b4" d="M 1.578125 1.46875 C 1.578125 1.46875 1.285156 1.078125 1.285156 1.078125 C 1.246094 1.03125 1.042969 0.722656 0.949219 0.722656 C 0.953125 0.722656 1.246094 1.113281 1.246094 1.113281 C 1.28125 1.160156 1.488281 1.46875 1.578125 1.46875 Z M 1.578125 1.46875 " fill-opacity="1" fill-rule="nonzero"/></g></g></g></g><g mask="url(#a6f58eac35)"><g transform="matrix(1, 0, 0, 1, 109, 1)"><g clip-path="url(#e950cf644a)"><g clip-path="url(#767016ff62)"><path fill="#ffa4b4" d="M 1.453125 1.277344 C 1.457031 1.277344 1.203125 0.921875 1.207031 0.925781 C 1.171875 0.882812 1 0.605469 0.914062 0.605469 C 0.910156 0.605469 1.167969 0.960938 1.164062 0.957031 C 1.199219 1 1.371094 1.277344 1.453125 1.277344 Z M 1.453125 1.277344 " fill-opacity="1" fill-rule="nonzero"/></g></g></g></g><g mask="url(#70e7170bf2)"><g transform="matrix(1, 0, 0, 1, 109, 1)"><g clip-path="url(#773037c107)"><g clip-path="url(#a77b659420)"><path fill="#ffa4b4" d="M 1.363281 1.554688 C 1.339844 1.554688 1.03125 1.257812 1.015625 1.25 C 0.949219 1.191406 0.75 0.984375 0.640625 0.984375 C 0.660156 0.984375 0.972656 1.28125 0.984375 1.289062 C 1.054688 1.347656 1.25 1.554688 1.363281 1.554688 Z M 1.363281 1.554688 " fill-opacity="1" fill-rule="nonzero"/></g></g></g></g><g mask="url(#29cb39e498)"><g transform="matrix(1, 0, 0, 1, 109, 2)"><g clip-path="url(#11cd272b72)"><g clip-path="url(#2fd9fd4796)"><path fill="#ffa4b4" d="M 1.457031 0.886719 C 1.566406 0.886719 1.21875 0.734375 1.257812 0.753906 C 1.09375 0.675781 0.8125 0.476562 0.625 0.476562 C 0.515625 0.476562 0.863281 0.632812 0.824219 0.613281 C 0.988281 0.691406 1.269531 0.886719 1.457031 0.886719 Z M 1.457031 0.886719 " fill-opacity="1" fill-rule="nonzero"/></g></g></g></g><g mask="url(#87b00dba78)"><g transform="matrix(1, 0, 0, 1, 109, 1)"><g clip-path="url(#3910d31e0f)"><g clip-path="url(#56ae37818f)"><path fill="#ffa4b4" d="M 1.585938 1.285156 C 1.597656 1.285156 1.375 0.921875 1.378906 0.929688 C 1.355469 0.894531 1.203125 0.601562 1.125 0.601562 C 1.113281 0.601562 1.339844 0.96875 1.332031 0.960938 C 1.359375 0.996094 1.511719 1.285156 1.585938 1.285156 Z M 1.585938 1.285156 " fill-opacity="1" fill-rule="nonzero"/></g></g></g></g><g mask="url(#5ef18032be)"><g transform="matrix(1, 0, 0, 1, 109, 1)"><g clip-path="url(#16b7563bd6)"><g clip-path="url(#7f603711e4)"><path fill="#ffa4b4" d="M 1.4375 1.144531 C 1.347656 1.144531 1.199219 0.589844 1.039062 0.589844 C 1.128906 0.589844 1.277344 1.144531 1.4375 1.144531 Z M 1.4375 1.144531 " fill-opacity="1" fill-rule="nonzero"/></g></g></g></g><g mask="url(#152dd8c701)"><g transform="matrix(1, 0, 0, 1, 110, 1)"><g clip-path="url(#97b0830541)"><g clip-path="url(#a950fcb6ae)"><path fill="#ffa4b4" d="M 0.46875 1.109375 C 0.417969 1.109375 0.300781 0.671875 0.175781 0.671875 C 0.226562 0.671875 0.34375 1.109375 0.46875 1.109375 Z M 0.46875 1.109375 " fill-opacity="1" fill-rule="nonzero"/></g></g></g></g><g mask="url(#e4451bec3d)"><g transform="matrix(1, 0, 0, 1, 109, 1)"><g clip-path="url(#3e3c341b48)"><g clip-path="url(#60656897c3)"><path fill="#ffa4b4" d="M 1.480469 1.535156 C 1.460938 1.535156 1.121094 1.15625 1.113281 1.148438 C 1.054688 1.09375 0.816406 0.804688 0.707031 0.804688 C 0.726562 0.804688 1.066406 1.179688 1.074219 1.1875 C 1.132812 1.246094 1.371094 1.535156 1.480469 1.535156 Z M 1.480469 1.535156 " fill-opacity="1" fill-rule="nonzero"/></g></g></g></g><g mask="url(#6ab3c770c0)"><g transform="matrix(1, 0, 0, 1, 109, 1)"><g clip-path="url(#973404dca0)"><g clip-path="url(#cb02a93986)"><path fill="#ffa4b4" d="M 1.351562 1.238281 C 1.363281 1.238281 1.144531 0.960938 1.148438 0.96875 C 1.113281 0.925781 0.980469 0.730469 0.902344 0.730469 C 0.894531 0.730469 1.109375 1.007812 1.105469 1.003906 C 1.144531 1.042969 1.273438 1.238281 1.351562 1.238281 Z M 1.351562 1.238281 " fill-opacity="1" fill-rule="nonzero"/></g></g></g></g><g mask="url(#8cfd43367f)"><g transform="matrix(1, 0, 0, 1, 110, 1)"><g clip-path="url(#17e8c2437a)"><g clip-path="url(#ffc224a740)"><path fill="#ffa4b4" d="M 0.578125 1.070312 C 0.542969 1.070312 0.445312 0.617188 0.332031 0.617188 C 0.363281 0.617188 0.464844 1.070312 0.578125 1.070312 Z M 0.578125 1.070312 " fill-opacity="1" fill-rule="nonzero"/></g></g></g></g><g mask="url(#674192eab4)"><g transform="matrix(1, 0, 0, 1, 109, 1)"><g clip-path="url(#c3b5896eb7)"><g clip-path="url(#218b40d894)"><path fill="#ffa4b4" d="M 1.441406 1.738281 C 1.394531 1.738281 1.050781 1.457031 1.015625 1.4375 C 0.917969 1.375 0.695312 1.183594 0.5625 1.183594 C 0.609375 1.183594 0.953125 1.460938 0.988281 1.484375 C 1.085938 1.546875 1.308594 1.738281 1.441406 1.738281 Z M 1.441406 1.738281 " fill-opacity="1" fill-rule="nonzero"/></g></g></g></g><g mask="url(#83f252a6ac)"><g transform="matrix(1, 0, 0, 1, 109, 1)"><g clip-path="url(#ec80f0c355)"><g clip-path="url(#9afc9c7ec9)"><path fill="#ffa4b4" d="M 1.417969 1.390625 C 1.410156 1.390625 1.109375 1.03125 1.109375 1.027344 C 1.0625 0.976562 0.855469 0.703125 0.757812 0.703125 C 0.765625 0.703125 1.066406 1.0625 1.070312 1.066406 C 1.117188 1.113281 1.320312 1.390625 1.417969 1.390625 Z M 1.417969 1.390625 " fill-opacity="1" fill-rule="nonzero"/></g></g></g></g><path fill="#ffa4b4" d="M 109.878906 18.359375 C 109.484375 17.890625 106.867188 15.027344 107.726562 14.347656 C 109.398438 13.027344 110.113281 16.148438 110.582031 16.96875 C 110.59375 16.964844 110.605469 16.957031 110.617188 16.953125 C 111.5625 16.253906 112.703125 15.464844 113.929688 15.636719 C 114.410156 15.703125 114.707031 16.429688 114.863281 16.800781 C 115.015625 17.164062 115.054688 17.566406 115.042969 17.957031 C 115.066406 17.210938 115.578125 17.328125 114.710938 17.675781 C 112.957031 18.375 110.792969 17.84375 109.175781 18.929688 C 108.769531 19.203125 108.578125 20.277344 108.371094 20.414062 C 110.167969 19.207031 113.21875 20.28125 114.738281 18.652344 C 115.210938 18.148438 115.695312 17.410156 115.871094 16.734375 C 116.167969 15.597656 115.472656 14.023438 114.183594 14.09375 C 113.585938 14.128906 112.964844 14.496094 112.453125 14.777344 C 111.671875 15.210938 111.367188 15.5625 111.058594 14.476562 C 110.722656 13.304688 109.355469 11.800781 108.207031 13.132812 C 107.554688 13.894531 106.992188 14.835938 106.808594 15.828125 C 106.53125 17.328125 108.148438 18.855469 109.003906 19.875 C 108.960938 19.824219 110.082031 18.597656 109.878906 18.359375 Z M 109.878906 18.359375 " fill-opacity="1" fill-rule="nonzero"/><g clip-path="url(#df7012c4c6)"><path fill="#ffa4b4" d="M 6.296875 38.769531 C 10.507812 32.777344 16.089844 27.464844 23 24.785156 C 24.652344 24.144531 26.375 23.726562 28.128906 23.503906 C 30.050781 23.265625 31.929688 23.707031 33.769531 24.242188 C 37.5 25.328125 40.75 27.402344 43.925781 29.582031 C 46.976562 31.683594 50.023438 33.765625 53.550781 34.984375 C 57.320312 36.289062 61.480469 36.484375 65.4375 36.40625 C 73.035156 36.257812 80.1875 33.40625 86.5625 29.410156 C 91.386719 26.382812 95.722656 22.683594 99.179688 18.144531 C 101.882812 14.59375 105.113281 9.234375 103.027344 4.679688 C 102.003906 2.441406 99.683594 1.144531 97.34375 0.765625 C 94.015625 0.230469 90.015625 0.03125 86.949219 1.667969 C 84.398438 3.03125 82.441406 5.792969 81.210938 8.335938 C 80.664062 9.46875 80.269531 10.671875 79.941406 11.886719 C 79.800781 12.402344 79.695312 14.292969 79.269531 14.589844 C 80.441406 14.546875 81.613281 14.5 82.785156 14.453125 C 82.769531 14.453125 82.753906 14.453125 82.738281 14.453125 C 83.382812 14.539062 84.023438 14.628906 84.667969 14.71875 C 84.191406 14.417969 83.90625 13.136719 83.714844 12.65625 C 83.199219 11.363281 82.695312 10.066406 82.101562 8.804688 C 81.496094 7.527344 80.707031 6.375 79.613281 5.460938 C 78.234375 4.304688 76.058594 4.375 74.375 4.359375 C 72.765625 4.34375 71.414062 4.453125 70.050781 5.351562 C 68.660156 6.269531 67.792969 7.5625 67.273438 9.121094 C 66.25 12.199219 66.730469 15.421875 68.046875 18.3125 C 70.59375 23.90625 76.238281 28.761719 82.050781 30.671875 C 85.582031 31.832031 89.859375 31.949219 93.503906 31.328125 C 96.71875 30.78125 99.582031 29.160156 102.238281 27.34375 C 104.816406 25.582031 107.214844 23.582031 109.769531 21.792969 C 109.84375 21.742188 108.875 21.554688 108.964844 21.566406 C 108.320312 21.476562 107.664062 21.4375 107.011719 21.414062 C 106.304688 21.386719 104.859375 21.148438 104.230469 21.585938 C 101.414062 23.558594 98.777344 25.78125 95.898438 27.671875 C 94.582031 28.539062 93.199219 29.300781 91.75 29.921875 C 91.042969 30.226562 90.308594 30.464844 89.570312 30.671875 C 89.167969 30.785156 88.761719 30.867188 88.351562 30.933594 C 88.113281 30.972656 87.875 31.003906 87.636719 31.023438 C 88.894531 31.121094 89.140625 31.109375 88.378906 30.980469 C 85.191406 30.347656 82.207031 28.355469 79.761719 26.304688 C 77.214844 24.164062 75.035156 21.523438 73.585938 18.519531 C 72.175781 15.597656 71.917969 12.445312 72.8125 9.328125 C 73.277344 7.707031 74.300781 6.414062 75.699219 5.492188 C 75.980469 5.304688 76.289062 5.164062 76.601562 5.03125 C 78.402344 4.269531 71.792969 4.121094 73.582031 4.949219 C 74.488281 5.367188 75.195312 6.320312 75.746094 7.117188 C 77.136719 9.121094 77.765625 11.632812 78.753906 13.839844 C 79.25 14.945312 80.054688 14.847656 81.246094 14.929688 C 82.289062 15.003906 83.382812 15.0625 84.425781 14.921875 C 84.960938 14.851562 84.914062 14.582031 85.011719 14.097656 C 85.601562 11.277344 86.488281 8.59375 88.101562 6.179688 C 89.109375 4.671875 90.449219 3.234375 91.957031 2.214844 C 92.605469 1.773438 93.351562 1.492188 94.097656 1.265625 C 95.238281 0.914062 95.632812 1.507812 93.363281 1.019531 C 93.890625 1.132812 94.390625 1.394531 94.859375 1.652344 C 100.410156 4.691406 97.683594 11.746094 95.132812 15.792969 C 91.671875 21.28125 86.652344 25.605469 81.226562 29.0625 C 78.027344 31.101562 74.605469 32.800781 71.027344 34.0625 C 69.273438 34.683594 67.464844 35.160156 65.632812 35.488281 C 64.753906 35.644531 63.867188 35.746094 62.976562 35.808594 C 63.042969 35.800781 62.078125 35.816406 62.59375 35.84375 C 62.125 35.816406 61.660156 35.730469 61.199219 35.640625 C 55.527344 34.578125 51.0625 30.691406 46.335938 27.679688 C 40.90625 24.21875 34.800781 22.886719 28.410156 22.828125 C 22.523438 22.773438 17.242188 24.023438 12.25 27.207031 C 7.683594 30.121094 3.859375 34.148438 0.757812 38.5625 C 0.71875 38.621094 3.359375 38.9375 3.519531 38.941406 C 3.96875 38.960938 5.972656 39.234375 6.296875 38.769531 Z M 6.296875 38.769531 " fill-opacity="1" fill-rule="nonzero"/></g><g clip-path="url(#c04522d778)"><g clip-path="url(#4230f1a2a3)"><path fill="#ffa4b4" d="M 104.328125 10.65625 L 118.085938 10.65625 L 118.085938 22.054688 L 104.328125 22.054688 Z M 104.328125 10.65625 " fill-opacity="1" fill-rule="nonzero"/></g></g><g clip-path="url(#100dd46ef5)"><g clip-path="url(#36135c744e)"><path fill="#ffa4b4" d="M 104.921875 10.140625 L 113.125 10.140625 L 113.125 18.28125 L 104.921875 18.28125 Z M 104.921875 10.140625 " fill-opacity="1" fill-rule="nonzero"/></g></g><g clip-path="url(#13d94f0bdb)"><g clip-path="url(#6173e14116)"><path fill="#ffa4b4" d="M 110.324219 13.394531 L 118.320312 13.394531 L 118.320312 21.242188 L 110.324219 21.242188 Z M 110.324219 13.394531 " fill-opacity="1" fill-rule="nonzero"/></g></g><g clip-path="url(#684393800d)"><g clip-path="url(#2c7c803cff)"><path fill="#ffa4b4" d="M 110.546875 13.324219 L 118.542969 13.324219 L 118.542969 21.167969 L 110.546875 21.167969 Z M 110.546875 13.324219 " fill-opacity="1" fill-rule="nonzero"/></g></g></svg>