<svg xmlns="http://www.w3.org/2000/svg" xmlns:xlink="http://www.w3.org/1999/xlink" width="109" zoomAndPan="magnify" viewBox="0 0 81.75 42.75" height="57" preserveAspectRatio="xMidYMid meet" version="1.0"><defs><g/><clipPath id="19b2a5f7d1"><path d="M 0.113281 10 L 9 10 L 9 34 L 0.113281 34 Z M 0.113281 10 " clip-rule="nonzero"/></clipPath><clipPath id="0514ddca23"><path d="M 52 2 L 69 2 L 69 18 L 52 18 Z M 52 2 " clip-rule="nonzero"/></clipPath><clipPath id="ab560c5f78"><path d="M 54.617188 -4.6875 L 75.851562 6.199219 L 66.324219 24.777344 L 45.09375 13.890625 Z M 54.617188 -4.6875 " clip-rule="nonzero"/></clipPath><clipPath id="4fd3bfd03e"><path d="M 54.617188 -4.6875 L 75.851562 6.199219 L 66.324219 24.777344 L 45.09375 13.890625 Z M 54.617188 -4.6875 " clip-rule="nonzero"/></clipPath><clipPath id="8bfd2f899d"><path d="M 54.617188 -4.6875 L 75.851562 6.199219 L 66.324219 24.777344 L 45.09375 13.890625 Z M 54.617188 -4.6875 " clip-rule="nonzero"/></clipPath><clipPath id="51e457e57a"><path d="M 58 7 L 63 7 L 63 13 L 58 13 Z M 58 7 " clip-rule="nonzero"/></clipPath><clipPath id="0d6125c071"><path d="M 54.617188 -4.6875 L 75.851562 6.199219 L 66.324219 24.777344 L 45.09375 13.890625 Z M 54.617188 -4.6875 " clip-rule="nonzero"/></clipPath><clipPath id="822226d041"><path d="M 54.617188 -4.6875 L 75.851562 6.199219 L 66.324219 24.777344 L 45.09375 13.890625 Z M 54.617188 -4.6875 " clip-rule="nonzero"/></clipPath><clipPath id="58c4255edd"><path d="M 54.617188 -4.6875 L 75.851562 6.199219 L 66.324219 24.777344 L 45.09375 13.890625 Z M 54.617188 -4.6875 " clip-rule="nonzero"/></clipPath></defs><g clip-path="url(#19b2a5f7d1)"><g fill="#ffffff" fill-opacity="1"><g transform="translate(0.183275, 28.97196)"><g><path d="M 1.828125 -18.703125 L 8.765625 -18.703125 C 8.609375 -18.597656 8.488281 -18.378906 8.40625 -18.046875 C 8.332031 -17.710938 8.296875 -17.207031 8.296875 -16.53125 L 8.296875 -0.453125 C 8.296875 0.578125 8.097656 1.421875 7.703125 2.078125 C 7.304688 2.742188 6.796875 3.269531 6.171875 3.65625 C 5.554688 4.039062 4.890625 4.316406 4.171875 4.484375 C 3.453125 4.660156 2.769531 4.765625 2.125 4.796875 C 1.488281 4.828125 0.957031 4.835938 0.53125 4.828125 C 1.09375 4.679688 1.53125 4.210938 1.84375 3.421875 C 2.15625 2.640625 2.3125 1.71875 2.3125 0.65625 L 2.3125 -16.53125 C 2.3125 -17.207031 2.265625 -17.710938 2.171875 -18.046875 C 2.085938 -18.378906 1.972656 -18.597656 1.828125 -18.703125 Z M 1.828125 -18.703125 "/></g></g></g></g><g fill="#ffffff" fill-opacity="1"><g transform="translate(9.486555, 28.97196)"><g><path d="M 17.59375 -2.484375 C 17.644531 -2.296875 17.757812 -2.144531 17.9375 -2.03125 C 18.113281 -1.914062 18.300781 -1.863281 18.5 -1.875 C 18.707031 -1.894531 18.859375 -1.992188 18.953125 -2.171875 C 18.679688 -1.617188 18.304688 -1.164062 17.828125 -0.8125 C 17.359375 -0.46875 16.820312 -0.222656 16.21875 -0.078125 C 15.476562 0.0546875 14.757812 0.015625 14.0625 -0.203125 C 13.375 -0.421875 12.773438 -0.789062 12.265625 -1.3125 C 11.753906 -1.832031 11.398438 -2.460938 11.203125 -3.203125 L 10.96875 -4.078125 C 10.914062 -3.597656 10.785156 -3.148438 10.578125 -2.734375 C 10.117188 -1.796875 9.488281 -1.070312 8.6875 -0.5625 C 7.894531 -0.0625 7.039062 0.234375 6.125 0.328125 C 5.21875 0.429688 4.351562 0.328125 3.53125 0.015625 C 2.71875 -0.296875 2.03125 -0.789062 1.46875 -1.46875 C 0.914062 -2.144531 0.613281 -3.003906 0.5625 -4.046875 C 0.519531 -4.898438 0.695312 -5.613281 1.09375 -6.1875 C 1.5 -6.757812 2.03125 -7.226562 2.6875 -7.59375 C 3.351562 -7.957031 4.0625 -8.234375 4.8125 -8.421875 C 5.5625 -8.617188 6.269531 -8.753906 6.9375 -8.828125 C 7.613281 -8.910156 8.164062 -8.960938 8.59375 -8.984375 C 9.03125 -9.003906 9.25 -9.015625 9.25 -9.015625 L 9.625 -9.015625 L 8.90625 -11.546875 C 8.75 -12.171875 8.421875 -12.628906 7.921875 -12.921875 C 7.429688 -13.222656 6.894531 -13.351562 6.3125 -13.3125 C 5.738281 -13.269531 5.242188 -13.007812 4.828125 -12.53125 C 5.472656 -13.269531 6.21875 -13.8125 7.0625 -14.15625 C 7.90625 -14.507812 8.757812 -14.675781 9.625 -14.65625 C 10.5 -14.632812 11.335938 -14.4375 12.140625 -14.0625 C 12.953125 -13.695312 13.648438 -13.171875 14.234375 -12.484375 C 14.828125 -11.804688 15.257812 -10.992188 15.53125 -10.046875 L 16.640625 -6.015625 Z M 9.21875 -2.125 C 9.820312 -2.207031 10.273438 -2.5 10.578125 -3 C 10.910156 -3.488281 10.988281 -4.023438 10.8125 -4.609375 L 9.625 -8.9375 C 8.988281 -8.769531 8.425781 -8.453125 7.9375 -7.984375 C 7.445312 -7.515625 7.078125 -6.96875 6.828125 -6.34375 C 6.585938 -5.71875 6.484375 -5.0625 6.515625 -4.375 C 6.554688 -3.738281 6.8125 -3.195312 7.28125 -2.75 C 7.757812 -2.3125 8.328125 -2.09375 8.984375 -2.09375 C 9.085938 -2.09375 9.164062 -2.101562 9.21875 -2.125 Z M 9.21875 -2.125 "/></g></g></g><g fill="#ffffff" fill-opacity="1"><g transform="translate(28.967787, 28.97196)"><g><path d="M 20.1875 0 C 20.351562 -0.125 20.472656 -0.347656 20.546875 -0.671875 C 20.628906 -1.003906 20.671875 -1.515625 20.671875 -2.203125 L 20.671875 -11.375 C 20.671875 -11.40625 20.671875 -11.429688 20.671875 -11.453125 C 20.671875 -11.484375 20.671875 -11.507812 20.671875 -11.53125 C 20.628906 -12.019531 20.445312 -12.390625 20.125 -12.640625 C 19.8125 -12.898438 19.453125 -13.03125 19.046875 -13.03125 C 18.640625 -13.03125 18.269531 -12.910156 17.9375 -12.671875 C 17.601562 -12.441406 17.398438 -12.078125 17.328125 -11.578125 C 17.296875 -11.296875 17.265625 -11.015625 17.234375 -10.734375 C 17.210938 -10.453125 17.203125 -10.160156 17.203125 -9.859375 L 17.203125 -2.203125 C 17.203125 -1.515625 17.242188 -1.003906 17.328125 -0.671875 C 17.421875 -0.347656 17.535156 -0.125 17.671875 0 L 10.734375 0 C 10.890625 -0.125 11.003906 -0.347656 11.078125 -0.671875 C 11.160156 -1.003906 11.203125 -1.515625 11.203125 -2.203125 L 11.203125 -11.375 C 11.203125 -11.40625 11.203125 -11.429688 11.203125 -11.453125 C 11.203125 -11.484375 11.203125 -11.507812 11.203125 -11.53125 C 11.171875 -12.019531 10.992188 -12.390625 10.671875 -12.640625 C 10.359375 -12.898438 10 -13.03125 9.59375 -13.03125 C 9.1875 -13.03125 8.8125 -12.910156 8.46875 -12.671875 C 8.132812 -12.441406 7.9375 -12.078125 7.875 -11.578125 C 7.832031 -11.296875 7.796875 -11.015625 7.765625 -10.734375 C 7.742188 -10.453125 7.734375 -10.160156 7.734375 -9.859375 L 7.734375 -2.203125 C 7.734375 -1.515625 7.773438 -1.003906 7.859375 -0.671875 C 7.953125 -0.347656 8.070312 -0.125 8.21875 0 L 1.265625 0 C 1.429688 -0.125 1.550781 -0.347656 1.625 -0.671875 C 1.707031 -1.003906 1.75 -1.515625 1.75 -2.203125 L 1.75 -13.125 C 1.75 -13.4375 1.601562 -13.679688 1.3125 -13.859375 C 1.019531 -14.035156 0.757812 -14.007812 0.53125 -13.78125 C 1.3125 -14.644531 2.289062 -15.078125 3.46875 -15.078125 C 4.207031 -15.078125 4.898438 -14.910156 5.546875 -14.578125 C 6.191406 -14.253906 6.710938 -13.785156 7.109375 -13.171875 C 7.515625 -12.554688 7.722656 -11.8125 7.734375 -10.9375 L 7.8125 -11.5 C 7.976562 -12.582031 8.492188 -13.441406 9.359375 -14.078125 C 10.128906 -14.660156 10.941406 -14.984375 11.796875 -15.046875 C 12.660156 -15.117188 13.476562 -14.988281 14.25 -14.65625 C 15.03125 -14.320312 15.6875 -13.8125 16.21875 -13.125 C 16.75 -12.445312 17.066406 -11.648438 17.171875 -10.734375 L 17.28125 -11.5 C 17.4375 -12.582031 17.945312 -13.441406 18.8125 -14.078125 C 19.625 -14.691406 20.484375 -15.019531 21.390625 -15.0625 C 22.304688 -15.101562 23.160156 -14.925781 23.953125 -14.53125 C 24.753906 -14.132812 25.40625 -13.554688 25.90625 -12.796875 C 26.40625 -12.035156 26.65625 -11.15625 26.65625 -10.15625 L 26.65625 -2.203125 C 26.65625 -1.515625 26.695312 -1.003906 26.78125 -0.671875 C 26.875 -0.347656 26.992188 -0.125 27.140625 0 Z M 20.1875 0 "/></g></g></g><g fill="#ffffff" fill-opacity="1"><g transform="translate(56.639095, 28.97196)"><g><path d="M 4 -15.5625 C 3.164062 -15.5625 2.457031 -15.847656 1.875 -16.421875 C 1.289062 -17.003906 1 -17.710938 1 -18.546875 C 1 -19.097656 1.128906 -19.597656 1.390625 -20.046875 C 1.660156 -20.492188 2.023438 -20.851562 2.484375 -21.125 C 2.953125 -21.40625 3.457031 -21.546875 4 -21.546875 C 4.550781 -21.546875 5.050781 -21.40625 5.5 -21.125 C 5.945312 -20.851562 6.304688 -20.492188 6.578125 -20.046875 C 6.859375 -19.597656 7 -19.097656 7 -18.546875 C 7 -17.710938 6.707031 -17.007812 6.125 -16.4375 C 5.5 -15.851562 4.789062 -15.5625 4 -15.5625 Z M 7 -2.203125 C 7 -1.515625 7.035156 -1.003906 7.109375 -0.671875 C 7.191406 -0.347656 7.3125 -0.125 7.46875 0 L 0.53125 0 C 0.664062 -0.125 0.773438 -0.347656 0.859375 -0.671875 C 0.953125 -1.003906 1 -1.515625 1 -2.203125 L 1 -14.765625 C 1 -14.765625 1.117188 -14.660156 1.359375 -14.453125 C 1.597656 -14.253906 1.96875 -14.066406 2.46875 -13.890625 C 2.976562 -13.710938 3.640625 -13.675781 4.453125 -13.78125 C 4.890625 -13.832031 5.320312 -13.925781 5.75 -14.0625 C 6.1875 -14.207031 6.601562 -14.378906 7 -14.578125 Z M 7 -2.203125 "/></g></g></g><g fill="#ffffff" fill-opacity="1"><g transform="translate(64.643627, 28.97196)"><g><path d="M 15.453125 -4.65625 C 15.734375 -4.945312 15.960938 -5.238281 16.140625 -5.53125 C 15.679688 -4.226562 14.910156 -3.117188 13.828125 -2.203125 C 13.015625 -1.515625 12.113281 -0.976562 11.125 -0.59375 C 10.132812 -0.21875 9.113281 -0.0195312 8.0625 0 C 7.019531 0 6.039062 -0.191406 5.125 -0.578125 C 4.21875 -0.972656 3.421875 -1.515625 2.734375 -2.203125 C 2.046875 -2.890625 1.503906 -3.6875 1.109375 -4.59375 C 0.722656 -5.507812 0.53125 -6.488281 0.53125 -7.53125 C 0.53125 -8.570312 0.722656 -9.550781 1.109375 -10.46875 C 1.503906 -11.382812 2.046875 -12.1875 2.734375 -12.875 C 3.421875 -13.5625 4.21875 -14.097656 5.125 -14.484375 C 6.039062 -14.878906 7.019531 -15.078125 8.0625 -15.078125 L 8.75 -15.078125 C 9.914062 -15.078125 11.003906 -14.820312 12.015625 -14.3125 C 13.035156 -13.8125 13.898438 -13.125 14.609375 -12.25 C 15.328125 -11.375 15.816406 -10.363281 16.078125 -9.21875 L 6.328125 -9.21875 L 6.328125 -8.71875 C 6.328125 -7.800781 6.53125 -6.945312 6.9375 -6.15625 C 7.34375 -5.375 7.90625 -4.71875 8.625 -4.1875 C 9.34375 -3.65625 10.148438 -3.328125 11.046875 -3.203125 C 11.859375 -3.078125 12.648438 -3.144531 13.421875 -3.40625 C 14.191406 -3.675781 14.867188 -4.09375 15.453125 -4.65625 Z M 6.328125 -13.015625 L 6.328125 -9.328125 L 10.28125 -9.328125 L 10.28125 -13.015625 C 10.28125 -13.554688 10.085938 -14.015625 9.703125 -14.390625 C 9.328125 -14.773438 8.867188 -14.96875 8.328125 -14.96875 C 7.773438 -14.96875 7.300781 -14.773438 6.90625 -14.390625 C 6.519531 -14.015625 6.328125 -13.554688 6.328125 -13.015625 Z M 6.328125 -13.015625 "/></g></g></g><g clip-path="url(#0514ddca23)"><g clip-path="url(#ab560c5f78)"><g clip-path="url(#4fd3bfd03e)"><g clip-path="url(#8bfd2f899d)"><path fill="#ffc7c7" d="M 62.984375 8.402344 C 70.535156 3.476562 59.925781 -1.964844 60.332031 7.042969 C 59.929688 -1.964844 49.863281 4.605469 57.816406 8.683594 C 49.863281 4.605469 50.402344 16.613281 57.953125 11.6875 C 50.402344 16.613281 61.007812 22.050781 60.605469 13.046875 C 61.007812 22.050781 71.074219 15.480469 63.121094 11.402344 C 71.074219 15.480469 70.535156 3.476562 62.984375 8.402344 Z M 62.984375 8.402344 " fill-opacity="1" fill-rule="nonzero"/></g></g></g></g><g clip-path="url(#51e457e57a)"><g clip-path="url(#0d6125c071)"><g clip-path="url(#822226d041)"><g clip-path="url(#58c4255edd)"><path fill="#ff8888" d="M 62.398438 11.035156 C 62.265625 11.292969 62.089844 11.515625 61.871094 11.707031 C 61.648438 11.894531 61.402344 12.035156 61.125 12.125 C 60.851562 12.214844 60.570312 12.25 60.28125 12.226562 C 59.996094 12.203125 59.722656 12.128906 59.46875 11.996094 C 59.210938 11.867188 58.992188 11.691406 58.804688 11.46875 C 58.621094 11.25 58.484375 11 58.394531 10.726562 C 58.308594 10.449219 58.277344 10.167969 58.300781 9.878906 C 58.328125 9.585938 58.40625 9.3125 58.539062 9.054688 C 58.671875 8.796875 58.847656 8.570312 59.066406 8.382812 C 59.289062 8.195312 59.535156 8.054688 59.8125 7.964844 C 60.085938 7.875 60.367188 7.839844 60.65625 7.863281 C 60.941406 7.882812 61.214844 7.960938 61.46875 8.09375 C 61.726562 8.222656 61.945312 8.398438 62.132812 8.621094 C 62.316406 8.839844 62.453125 9.089844 62.542969 9.363281 C 62.628906 9.640625 62.660156 9.921875 62.636719 10.210938 C 62.609375 10.5 62.53125 10.773438 62.398438 11.035156 Z M 62.398438 11.035156 " fill-opacity="1" fill-rule="nonzero"/></g></g></g></g></svg>