<svg xmlns="http://www.w3.org/2000/svg" xmlns:xlink="http://www.w3.org/1999/xlink" width="80" zoomAndPan="magnify" viewBox="0 0 60 30.000001" height="40" preserveAspectRatio="xMidYMid meet" version="1.0"><defs><filter x="0%" y="0%" width="100%" height="100%" id="54a195327a"><feColorMatrix values="0 0 0 0 1 0 0 0 0 1 0 0 0 0 1 0 0 0 1 0" color-interpolation-filters="sRGB"/></filter><mask id="d637ddf8de"><g filter="url(#54a195327a)"><rect x="-6" width="72" fill="#000000" y="-3" height="36.000001" fill-opacity="0.7"/></g></mask><clipPath id="58a6605446"><path d="M 0.824219 0.0585938 L 56.566406 0.0585938 L 56.566406 9.347656 L 0.824219 9.347656 Z M 0.824219 0.0585938 " clip-rule="nonzero"/></clipPath><clipPath id="c8a67da824"><rect x="0" width="57" y="0" height="10"/></clipPath><clipPath id="4fd822b4ee"><path d="M 1 11 L 58 11 L 58 20.257812 L 1 20.257812 Z M 1 11 " clip-rule="nonzero"/></clipPath><mask id="4535c28479"><g filter="url(#54a195327a)"><rect x="-6" width="72" fill="#000000" y="-3" height="36.000001" fill-opacity="0.7"/></g></mask><clipPath id="a077b31d6b"><path d="M 0.433594 0.148438 L 56.175781 0.148438 L 56.175781 9.257812 L 0.433594 9.257812 Z M 0.433594 0.148438 " clip-rule="nonzero"/></clipPath><clipPath id="c34cbad51c"><rect x="0" width="57" y="0" height="10"/></clipPath></defs><g mask="url(#d637ddf8de)"><g transform="matrix(1, 0, 0, 1, 2, 9)"><g clip-path="url(#c8a67da824)"><g clip-path="url(#58a6605446)"><path fill="#ebbadb" d="M 56.183594 9.117188 C 38.558594 7.523438 20.929688 7.523438 3.304688 9.117188 C 2.199219 9.117188 0.191406 2.1875 1.296875 2.1875 C 18.921875 -0.375 36.546875 -0.375 54.175781 2.1875 C 55.277344 2.1875 57.289062 9.117188 56.183594 9.117188 Z M 56.183594 9.117188 " fill-opacity="1" fill-rule="nonzero"/></g></g></g></g><g clip-path="url(#4fd822b4ee)"><g mask="url(#4535c28479)"><g transform="matrix(1, 0, 0, 1, 1, 11)"><g clip-path="url(#c34cbad51c)"><g clip-path="url(#a077b31d6b)"><path fill="#ebbadb" d="M 55.703125 9.378906 C 38.078125 7.785156 20.449219 7.785156 2.824219 9.378906 C 1.71875 9.378906 -0.289062 2.449219 0.816406 2.449219 C 18.441406 -0.113281 36.066406 -0.113281 53.695312 2.449219 C 54.800781 2.449219 56.808594 9.378906 55.703125 9.378906 Z M 55.703125 9.378906 " fill-opacity="1" fill-rule="nonzero"/></g></g></g></g></g></svg>